<svg width="32" height="32" viewBox="0 0 32 32" fill="none" xmlns="http://www.w3.org/2000/svg">
<circle cx="21" cy="17" r="5" fill="#B10622"/>
<path d="M26 7C26 9.76142 23.7614 12 21 12C18.2386 12 16 9.76142 16 7C16 4.23858 18.2386 2 21 2C23.7614 2 26 4.23858 26 7Z" fill="#EEEEEE"/>
<path d="M16 7C16 9.76142 13.7614 12 11 12C8.23858 12 6 9.76142 6 7C6 4.23858 8.23858 2 11 2C13.7614 2 16 4.23858 16 7Z" fill="#EEEEEE"/>
<path d="M21 12C18.2386 12 16 9.76142 16 7C16 4.23858 18.2386 2 21 2H11C13.7614 2 16 4.23858 16 7C16 9.76142 13.7614 12 11 12H21Z" fill="#EEEEEE"/>
<path d="M16 17C16 19.7614 13.7614 22 11 22C8.23858 22 6 19.7614 6 17C6 14.2386 8.23858 12 11 12C13.7614 12 16 14.2386 16 17Z" fill="#B10622"/>
<path d="M11 12.0098H16V22H11V12.0098Z" fill="#B10622"/>
<path fill-rule="evenodd" clip-rule="evenodd" d="M11 32C13.7614 32 16 29.7614 16 27C16 26.9548 15.9994 26.9098 15.9982 26.8649H15.9996V22H11.1348V22.0018C11.09 22.0006 11.0451 22 11 22C8.23858 22 6 24.2386 6 27C6 29.7614 8.23858 32 11 32Z" fill="#EEEEEE"/>
<circle cx="21" cy="7" r="5" fill="#EEEEEE"/>
</svg>
