<svg width="32" height="32" viewBox="0 0 32 32" fill="none" xmlns="http://www.w3.org/2000/svg">
<rect x="16" y="0.5" width="21.5668" height="21.5668" transform="rotate(45 16 0.5)" fill="#B10622"/>
<path fill-rule="evenodd" clip-rule="evenodd" d="M20.2872 15.2613C19.9752 16.0269 20.1299 16.938 20.7511 17.5592C21.5783 18.3863 22.9193 18.3863 23.7465 17.5592C24.5736 16.7321 24.5736 15.391 23.7465 14.5639C23.1138 13.9311 22.1803 13.7824 21.4063 14.1177L18.3214 11.0328C18.6566 10.2587 18.5079 9.32527 17.8752 8.69256C17.2425 8.05985 16.3091 7.91112 15.535 8.24638L11.8775 4.58887L10.7461 5.72024L14.4159 9.39002C14.104 10.1556 14.2586 11.0667 14.8798 11.6879C15.0974 11.9055 15.3505 12.0658 15.6204 12.1689L15.6126 20.1689C14.8329 20.4814 14.2822 21.2442 14.2822 22.1356C14.2822 23.3054 15.2305 24.2536 16.4003 24.2536C17.57 24.2536 18.5183 23.3054 18.5183 22.1356C18.5183 21.2537 17.9792 20.4976 17.2126 20.179L17.2204 12.1946L20.2872 15.2613Z" fill="black"/>
</svg>
