<svg width="32" height="32" viewBox="0 0 32 32" fill="none" xmlns="http://www.w3.org/2000/svg">
<path d="M6.01417 20.8588L5.19958 20.6959C5.19958 20.6959 3.74698 23.2005 3.40748 24.7281C3.0097 26.518 3.73332 28.964 3.73332 28.964C3.73332 28.964 4.83842 30.91 6.50292 31.4892C9.99523 32.7044 16.2372 28.6381 16.2372 28.6381C16.2372 28.6381 18.8571 27.437 20.6767 27.0904C21.7434 26.8872 23.4463 26.7238 23.4463 26.7238C23.4463 26.7238 26.501 26.3573 27.6822 24.0357C28.6701 22.0939 27.6822 20.2479 27.6822 20.2479C27.6822 20.2479 25.9649 21.2133 23.9758 20.4515C22.2652 19.7964 21.8986 17.7227 21.8986 17.7227H19.74C19.74 17.7227 19.1475 19.9149 17.8257 20.4515C17.0004 20.7866 15.5856 20.8588 15.5856 20.8588C15.5856 20.8588 14.1254 22.9324 12.7752 24.0357C11.3407 25.2079 8.62085 26.3573 8.62085 26.3573C8.62085 26.3573 6.89718 25.1602 6.25854 24.0357C5.53481 22.7614 6.01417 20.8588 6.01417 20.8588Z" fill="#B10622"/>
<circle cx="6.46237" cy="15.1528" r="2.15866" fill="#B10622"/>
<circle cx="16.1557" cy="15.1528" r="2.15866" fill="#B10622"/>
<circle cx="25.5239" cy="15.1528" r="2.15866" fill="#B10622"/>
<path d="M13.1826 1.01953H28.3339L24.5461 11.8943L20.7175 4.64444L16.9704 11.8943L13.1826 1.01953Z" fill="#B10622"/>
</svg>
