<svg width="32" height="32" viewBox="0 0 32 32" fill="none" xmlns="http://www.w3.org/2000/svg">
<g clip-path="url(#clip0_24_12572)">
<rect width="32" height="32" fill="#EEEEEE"/>
<rect y="-1" width="33" height="33" fill="#B10622"/>
<path d="M14 14.1428H16.7857V25.7142C15.6071 28.4999 13.1861 28.8631 11.1071 28.2856C9.17857 27.7499 8 25.7142 8 25.7142L10.25 24.4285C10.25 24.4285 10.8929 25.607 12.2857 25.607C13.6786 25.607 14 24.4285 14 24.4285V14.1428Z" fill="black"/>
<path d="M27.3929 16.2856L25.4643 17.5713C25.4643 17.5713 24.2857 16.4999 23.4286 16.4999C22.5714 16.4999 22.0114 16.9562 22.0357 17.9999C22.0698 19.4657 25.0083 20.1826 26 20.6785C26 20.6785 28.264 21.8775 28.1429 24.9642C28.0217 28.0509 25.0357 28.4142 23.75 28.4999C22.4643 28.5856 21.5594 28.3118 20.4286 27.6428C19.4325 27.0535 18.5 25.7142 18.5 25.7142L20.75 24.107C20.75 24.107 21.8855 25.9462 23.1071 26.0356C24.0839 26.1071 25.2286 25.9285 25.3571 24.9642C25.6143 23.0356 23.5271 22.6229 22.6786 22.1785C20.5594 21.018 18.3929 19.7142 19.5714 16.2856C20.0134 14.9999 21.2841 14.1809 22.7857 14.0356C26.1071 13.7142 27.3929 16.2856 27.3929 16.2856Z" fill="black"/>
</g>
<defs>
<clipPath id="clip0_24_12572">
<rect width="32" height="32" fill="white"/>
</clipPath>
</defs>
</svg>
