<svg width="32" height="32" viewBox="0 0 32 32" fill="none" xmlns="http://www.w3.org/2000/svg">
<g clip-path="url(#clip0_24_12583)">
<circle cx="15.4998" cy="15.495" r="2.59282" fill="#EEEEEE" stroke="#EEEEEE" stroke-width="0.0933448"/>
<path d="M30.2532 15.6077C30.2532 16.1984 29.9587 16.8357 29.2674 17.493C28.5743 18.1519 27.5317 18.7798 26.1815 19.3228C23.4852 20.4072 19.7091 21.0947 15.5 21.0947C11.2909 21.0947 7.51475 20.4072 4.81848 19.3228C3.46833 18.7798 2.42566 18.1519 1.73264 17.493C1.04135 16.8357 0.746758 16.1984 0.746758 15.6077C0.746758 15.017 1.04135 14.3798 1.73264 13.7225C2.42566 13.0635 3.46833 12.4357 4.81848 11.8927C7.51475 10.8083 11.2909 10.1208 15.5 10.1208C19.7091 10.1208 23.4852 10.8083 26.1815 11.8927C27.5317 12.4357 28.5743 13.0635 29.2674 13.7225C29.9587 14.3798 30.2532 15.017 30.2532 15.6077Z" stroke="#EEEEEE" stroke-width="1.49352"/>
<path d="M22.8765 28.3843C22.3649 28.6797 21.6658 28.7432 20.7509 28.4731C19.8337 28.2024 18.7686 27.6134 17.6233 26.7156C15.3361 24.9228 12.8526 21.9963 10.7481 18.3511C8.64352 14.7059 7.35084 11.0919 6.9418 8.21469C6.73697 6.77393 6.75936 5.55703 6.98353 4.62737C7.20713 3.70004 7.61169 3.12631 8.12328 2.83094C8.63486 2.53558 9.33401 2.47209 10.2489 2.74211C11.1661 3.0128 12.2312 3.60186 13.3765 4.49963C15.6637 6.29248 18.1472 9.21897 20.2517 12.8642C22.3563 16.5093 23.649 20.1233 24.058 23.0006C24.2628 24.4413 24.2404 25.6582 24.0163 26.5879C23.7927 27.5152 23.3881 28.0889 22.8765 28.3843Z" stroke="#EEEEEE" stroke-width="1.49352"/>
<path d="M8.12328 28.384C7.61169 28.0886 7.20713 27.5149 6.98353 26.5876C6.75936 25.6579 6.73697 24.441 6.9418 23.0003C7.35084 20.123 8.64352 16.509 10.7481 12.8639C12.8526 9.21867 15.3361 6.29218 17.6233 4.49933C18.7686 3.60156 19.8337 3.0125 20.7509 2.74181C21.6658 2.47179 22.3649 2.53528 22.8765 2.83064C23.3881 3.12601 23.7927 3.69974 24.0163 4.62707C24.2404 5.55673 24.2628 6.77363 24.058 8.21439C23.649 11.0916 22.3563 14.7056 20.2517 18.3508C18.1472 21.996 15.6637 24.9225 13.3765 26.7153C12.2312 27.6131 11.1661 28.2021 10.2489 28.4728C9.33401 28.7429 8.63486 28.6794 8.12328 28.384Z" stroke="#EEEEEE" stroke-width="1.49352"/>
</g>
<defs>
<clipPath id="clip0_24_12583">
<rect width="32" height="32" fill="white"/>
</clipPath>
</defs>
</svg>
