<svg width="32" height="32" viewBox="0 0 32 32" fill="none" xmlns="http://www.w3.org/2000/svg">
<path d="M16.0403 1L29.4191 8.75V24.25L16.0403 32L2.6615 24.25V8.75L16.0403 1Z" fill="#0B0D05"/>
<path fill-rule="evenodd" clip-rule="evenodd" d="M5.22483 8.91217L15.0049 3.26562V8.2624L9.55216 11.4106L5.22483 8.91217ZM8.54155 13.3158L4.09375 10.7478V22.1855L8.54155 19.6175V13.3158ZM9.85142 21.3499L5.18977 24.0414L15.0049 29.7081V24.3253L9.85142 21.3499ZM17.1602 24.2174V29.708L27.047 23.9999L22.292 21.2546L17.1602 24.2174ZM23.4366 19.4267L28.0712 22.1025V10.8308L23.4366 13.5065V19.4267ZM22.5912 11.5059L27.0119 8.95364L17.1602 3.26572V8.37033L22.5912 11.5059Z" fill="#EEEEEE"/>
<path fill-rule="evenodd" clip-rule="evenodd" d="M20.6544 12.6241L16.04 9.95996L11.5397 12.5582L16.1542 15.2223L20.6544 12.6241ZM10.4209 14.4009V19.6925L15.011 22.3426V17.051L10.4209 14.4009ZM17.1738 22.2821L21.6591 19.6925V14.5328L17.1738 17.1224V22.2821Z" fill="#EEEEEE"/>
</svg>
