<svg width="32" height="32" viewBox="0 0 32 32" fill="none" xmlns="http://www.w3.org/2000/svg">
<rect x="1.5" y="5.5" width="28" height="21.7857" stroke="#EEEEEE"/>
<rect x="1" y="5" width="29" height="6.90476" fill="#EEEEEE"/>
<ellipse cx="22.7496" cy="8.17605" rx="1.03571" ry="1.10476" fill="black"/>
<ellipse cx="26.6168" cy="8.17605" rx="1.03571" ry="1.10476" fill="black"/>
<path d="M11.4948 22.3163L8.60804 17.3163H14.3815L11.4948 22.3163ZM18.1807 15.0283H13.7321V14.0283H18.1807V15.0283ZM11.9948 16.7656V17.8163H10.9948V16.7656H11.9948ZM13.7321 15.0283C12.7726 15.0283 11.9948 15.8061 11.9948 16.7656H10.9948C10.9948 15.2539 12.2203 14.0283 13.7321 14.0283V15.0283Z" fill="#EEEEEE"/>
<path d="M19.4505 15.798L22.3373 20.798L16.5638 20.798L19.4505 15.798ZM12.7646 23.0859L17.2132 23.0859L17.2132 24.0859L12.7646 24.0859L12.7646 23.0859ZM18.9505 21.3486L18.9505 20.298L19.9505 20.298L19.9505 21.3486L18.9505 21.3486ZM17.2132 23.0859C18.1727 23.0859 18.9505 22.3081 18.9505 21.3486L19.9505 21.3486C19.9505 22.8604 18.725 24.0859 17.2132 24.0859L17.2132 23.0859Z" fill="#EEEEEE"/>
</svg>
