<svg width="32" height="32" viewBox="0 0 32 32" fill="none" xmlns="http://www.w3.org/2000/svg">
<g clip-path="url(#clip0_24_12680)">
<circle cx="15.5005" cy="4.5942" r="2.7942" fill="#B10622" stroke="white" stroke-width="1.6"/>
<path d="M0 20.5434L2.92029 17.3984H27.8551L31 20.5434M1.7971 31.1013L4.94203 28.4057V21.2173H25.8333V28.4057L28.529 31.1013" stroke="white" stroke-width="1.6"/>
<path d="M22.787 16.7251C22.787 19.8916 22.2866 22.6417 21.1313 24.5745C20.0123 26.4465 18.2514 27.6063 15.5 27.6063C12.7487 27.6063 10.9878 26.4465 9.86878 24.5745C8.71348 22.6417 8.21309 19.8916 8.21309 16.7251C8.21309 13.5328 8.60818 10.7881 9.70829 8.86206C10.2494 7.91473 10.9573 7.1722 11.8768 6.66116C12.7992 6.14852 13.9794 5.84395 15.5 5.84395C17.0207 5.84395 18.2009 6.14852 19.1233 6.66116C20.0428 7.1722 20.7507 7.91473 21.2918 8.86206C22.3919 10.7881 22.787 13.5328 22.787 16.7251Z" fill="#B10622" stroke="white" stroke-width="1.6"/>
<path d="M15.3873 14.0293H5.16633V8.63798L2.69531 6.3916M15.3873 14.0293H25.6084V8.63798L28.304 6.3916M15.3873 14.0293V28.4061" stroke="white" stroke-width="1.6"/>
</g>
<defs>
<clipPath id="clip0_24_12680">
<rect width="32" height="32" fill="white"/>
</clipPath>
</defs>
</svg>
