<!-- <svg viewBox="0 0 500 500" fill="none" xmlns="http://www.w3.org/2000/svg"><circle cx="250" cy="250" r="240" fill="black" stroke="white" stroke-width="5"/><g transform="translate(250,250) scale(1.5)"><circle r="15" fill="white"/><ellipse rx="50" ry="20" stroke="white" stroke-width="5" fill="none" transform="rotate(0)"/><ellipse rx="50" ry="20" stroke="white" stroke-width="5" fill="none" transform="rotate(60)"/><ellipse rx="50" ry="20" stroke="white" stroke-width="5" fill="none" transform="rotate(-60)"/></g></svg> -->
<!-- <svg width="100" height="100" viewBox="0 0 1725 1896" fill="none" xmlns="http://www.w3.org/2000/svg"><path d="M1196.5 1035.82C1235.08 1067.27 1284.45 1071.14 1296.03 1071.62C1297.32 1071.67 1298.28 1072.79 1298.01 1074.05C1293.85 1092.94 1267.45 1219.36 1298.54 1250.44C1326.71 1278.61 1382.1 1264.89 1416.14 1245.22C1417.57 1244.39 1419.36 1245.51 1419.17 1247.15C1418.39 1254.27 1416.54 1269.35 1413.99 1279.58C1408.85 1300.19 1387.96 1323.36 1386.1 1325.39C1386 1325.5 1385.91 1325.58 1385.79 1325.66L1298.75 1385.91C1298.61 1386.01 1298.46 1386.08 1298.29 1386.14C1129.88 1446.54 928.92 1516.12 745.663 1491.59C745.232 1491.53 744.847 1491.35 744.54 1491.04C638.964 1385.78 546.581 1040.62 545.313 1035.87C545.273 1035.72 545.263 1035.75 545.191 1035.62L518.306 985.078C517.753 984.04 518.209 982.746 519.283 982.266C528.293 978.23 565.28 960.705 581.168 938.314C601.589 909.534 604.32 850.297 604.661 838.831C604.693 837.739 605.549 836.88 606.642 836.854C616.821 836.603 664.752 834.428 692.696 815.591C723.14 795.069 752.797 739.329 758.019 729.202C758.486 728.296 759.53 727.869 760.491 728.211C771.561 732.145 835.268 754.022 870.918 749.467C911.913 744.229 950.249 700.156 958.034 690.72C958.812 689.777 960.201 689.71 961.061 690.579C969.652 699.25 1011.54 739.879 1051.38 749.467C1083 757.077 1140.13 750.897 1150.59 749.669C1151.56 749.555 1152.44 750.019 1152.68 750.96C1162.4 788.499 1164.27 1009.55 1196.5 1035.82Z" stroke="#0C8CE9" stroke-width="6"/><path d="M1419.59 1215.14C1436.91 1211.44 1464.41 1209.71 1467.03 1209.55C1467.18 1209.54 1467.3 1209.52 1467.44 1209.48C1498.55 1200.52 1540.51 1181.44 1549.06 1146.77C1559.15 1105.83 1528.16 1077.74 1496.37 1058.8C1462.06 1038.34 1389.33 1029.94 1363.55 1043.66C1312.41 1070.89 1292.37 1200.57 1328.24 1231.39C1341.2 1239.83 1368.78 1231.99 1370.73 1231.42C1370.81 1231.4 1370.86 1231.38 1370.94 1231.35C1372.72 1230.57 1397.55 1219.85 1419.59 1215.14Z" stroke="#0C8CE9" stroke-width="6"/><path d="M1144.42 569.979V720.841C1144.42 721.833 1143.72 722.67 1142.73 722.797C1133.34 724.01 1086.7 729.274 1055.86 718.646C1026.83 708.639 986.732 675.802 980.478 670.593C979.941 670.146 979.711 669.472 979.821 668.782L998.797 549.517C999.019 548.123 1000.56 547.368 1001.79 548.06C1012.45 554.047 1054.59 576.562 1086.13 576.871C1105.68 577.062 1133.44 570.231 1141.88 568.023C1143.16 567.688 1144.42 568.655 1144.42 569.979Z" stroke="#0C8CE9" stroke-width="6"/><path d="M1144.42 432.168V533.429C1144.42 534.277 1143.9 535.024 1143.1 535.296C1136.51 537.523 1106.67 547.182 1086.13 546.611C1052.3 545.67 1007.01 515.98 1000.15 511.351C999.573 510.964 999.281 510.326 999.317 509.635L1003.58 426.963C1003.66 425.518 1005.18 424.606 1006.48 425.234C1018.04 430.801 1063.55 451.62 1092.85 449.105C1112.23 447.442 1133.38 435.325 1141.24 430.422C1142.61 429.571 1144.42 430.559 1144.42 432.168Z" stroke="#0C8CE9" stroke-width="6"/><path d="M999.263 283.188C999.359 281.582 1002.06 238.403 1014.39 218.789C1031.65 191.331 1048.01 182.727 1078.28 199.738C1134.38 231.256 1155.62 331.987 1144.42 388.585C1132.17 433.2 1027.14 432.777 1008.79 377.936C1000.69 353.738 999.292 284.893 999.26 283.263C999.259 283.212 999.259 283.239 999.263 283.188Z" stroke="#0C8CE9" stroke-width="6"/><path d="M707.963 251.944C744.304 276.586 763.044 308.041 775.642 346.556C783.496 370.566 782.091 379.108 775.642 397.55C768.491 418.003 759.596 426.343 739.774 435.096C716.75 445.263 705.629 445.273 682.608 435.096C654.249 422.559 631.543 364.639 631.056 363.388C631.04 363.349 631.048 363.37 631.036 363.33C630.642 362.071 620.428 328.943 620.399 283.425C620.399 283.299 620.412 283.165 620.436 283.041C632.786 218.9 669.104 233.9 707.682 251.785C707.779 251.83 707.874 251.884 707.963 251.944Z" stroke="#0C8CE9" stroke-width="6"/><path d="M856.925 483.458L813.055 406.426C812.333 405.159 810.546 405.039 809.669 406.204C802.786 415.348 777.792 447.157 754.906 458.631C730.651 470.792 696.9 468.563 686.087 467.448C684.542 467.289 683.368 468.859 683.965 470.293L712.992 539.95C713.265 540.605 713.823 541.06 714.527 541.147C723.523 542.258 785.707 549.148 816.555 531.48C837.378 519.553 853.877 490.933 856.952 485.359C857.281 484.762 857.263 484.05 856.925 483.458Z" stroke="#0C8CE9" stroke-width="6"/><path d="M931.046 673.852L872.505 515.052C871.901 513.413 869.588 513.235 868.715 514.747C863.116 524.456 847.225 549.258 825.522 560.059C797.639 573.936 742.26 569.172 728.403 567.707C726.923 567.551 725.784 568.997 726.279 570.401L773.606 704.749C773.828 705.379 774.323 705.85 774.972 706.008C784.093 708.225 852.729 724.082 889.413 708.559C908.603 700.439 926.861 680.222 930.706 675.8C931.175 675.261 931.293 674.523 931.046 673.852Z" stroke="#0C8CE9" stroke-width="6"/><path d="M698.861 775.804C717.051 757.354 729.733 717.92 731.67 711.649C731.841 711.094 731.764 710.546 731.447 710.059C727.794 704.446 704.04 668.342 684.29 648.039C668.055 631.349 640.603 611.022 631.376 604.336C630.061 603.383 628.22 604.314 628.162 605.938C627.739 617.746 625.184 653.924 609.751 674.937C591.471 699.826 544.077 717.276 531.557 721.552C530.143 722.034 529.728 723.835 530.775 724.901L615.171 810.91C615.636 811.385 616.27 811.604 616.922 811.474C624.737 809.916 676.023 798.971 698.861 775.804Z" stroke="#0C8CE9" stroke-width="6"/><path d="M538.465 537.167L608.85 587.436C609.41 587.836 609.725 588.489 609.673 589.175C609.129 596.241 605.463 635.725 590.135 657.005C571.513 682.858 522.233 698.593 514.408 700.962C513.733 701.166 513.04 700.979 512.527 700.497L459.161 650.307C458.065 649.277 458.445 647.434 459.851 646.898C470.641 642.785 506.639 627.835 520.64 606.571C533.587 586.908 535.087 550.789 535.217 538.816C535.235 537.168 537.124 536.209 538.465 537.167Z" stroke="#0C8CE9" stroke-width="6"/><path d="M449.464 477.685C449.726 477.836 503.63 509.076 508.31 541.007C511.801 564.824 494.4 601.781 472.442 615.537C437.398 637.49 398.335 600.809 372.682 577.431C346.047 553.157 311.194 507.036 338.863 467.311C338.988 467.132 339.146 466.971 339.322 466.843C368.516 445.837 421.088 460.748 449.452 477.677L449.457 477.68L449.464 477.685Z" stroke="#0C8CE9" stroke-width="6"/><path d="M508.31 782.53C537.049 798.132 574.666 831.115 580.417 836.217C580.906 836.65 581.121 837.27 581.035 837.918C580.182 844.366 575.2 879.525 565.475 900.209C552.909 926.937 518.844 954.734 510.283 961.447C509.273 962.24 507.804 961.86 507.249 960.703C504.292 954.55 495.545 937.425 485.892 928.788C475.841 919.794 456.75 912.791 451.086 910.84C450.153 910.519 449.576 909.573 449.741 908.601C454.86 878.543 469.088 853.544 464.595 815.591C462.234 795.643 455.48 776.878 450.634 761.622C450.139 760.064 451.622 758.629 453.161 759.181C463.059 762.729 490.605 772.917 508.31 782.53Z" stroke="#0C8CE9" stroke-width="6"/><path d="M342.516 768.054L416.806 758.044C417.581 757.94 418.333 758.278 418.733 758.951C422.156 764.717 437.854 792.722 437.694 821.195C437.439 866.505 428.109 893.203 425.852 899.006C425.564 899.746 424.851 900.209 424.057 900.209H359.314C357.918 900.209 356.931 898.839 357.386 897.519C361.046 886.918 373.656 847.329 367.638 821.195C363.331 802.489 347 779.21 341.154 771.299C340.235 770.056 340.984 768.26 342.516 768.054Z" stroke="#0C8CE9" stroke-width="6"/><path d="M344.66 859.861C341.175 878.353 334.012 891.242 318.88 894.605C279.581 903.339 211.897 890.121 207.351 852.576C202.277 810.664 253.26 779.727 290.297 779.727C330.736 779.727 353.894 810.868 344.66 859.861Z" stroke="#0C8CE9" stroke-width="6"/><circle cx="827.814" cy="1334.81" r="105.814" fill="#5D94E7"/><mask id="mask0_26_244" style="mask-type:alpha" maskUnits="userSpaceOnUse" x="722" y="1229" width="212" height="212"><circle cx="827.814" cy="1334.81" r="105.814" fill="#1AB8ED"/></mask><g mask="url(#mask0_26_244)"><path d="M898.097 1277.09V1269.85L901.065 1274.79C901.504 1276.32 902.384 1279.53 902.384 1280.05C902.384 1280.71 901.394 1281.7 901.065 1281.7C900.735 1281.7 901.394 1285.64 902.384 1285.64C903.175 1285.64 899.856 1289.81 898.097 1291.89L894.47 1294.2L890.514 1295.84V1291.89C891.613 1291.35 893.943 1290.12 894.47 1289.59C895.13 1288.93 898.097 1284.33 898.097 1282.68V1277.09Z" fill="white"/><path d="M880.622 1312.62L881.941 1309L883.589 1310.62L882.461 1312.62H880.622Z" fill="white"/><path d="M900.076 1353.08C902.164 1352.75 906.472 1352.09 907 1352.09C909.088 1353.73 913.462 1357.02 914.254 1357.02C915.045 1357.02 918.54 1362.94 920.189 1365.91L917.221 1364.26L910.297 1360.31C909.857 1362.29 908.912 1366.43 908.648 1367.22C908.385 1368.01 906.34 1367.55 905.351 1367.22C905.901 1365.25 907 1361.1 907 1360.31C907 1359.52 905.901 1357.79 905.351 1357.02L900.076 1356.04V1353.08Z" fill="white"/><path d="M880.622 1342.88C877.654 1342.88 881.941 1337.95 881.941 1336.96C880.072 1338.38 876.006 1341.56 874.687 1342.88C873.038 1344.52 871.719 1347.16 870.4 1348.8C869.345 1350.12 870.84 1352.2 871.719 1353.08C873.368 1354.06 876.797 1356.04 877.325 1356.04C877.852 1356.04 879.743 1352.09 880.622 1350.12C880.622 1352.09 880.358 1356.5 879.303 1358.34C877.984 1360.64 885.238 1360.31 885.897 1360.97C886.557 1361.63 885.238 1357.02 885.238 1356.04C885.238 1355.05 887.546 1352.09 887.216 1350.12C886.887 1348.14 882.6 1349.46 881.941 1348.8C881.281 1348.14 884.249 1346.17 885.238 1344.52C886.227 1342.88 883.589 1342.88 880.622 1342.88Z" fill="white"/><path d="M900.076 1372.48C901.724 1372.81 898.427 1377.42 898.427 1378.4L903.043 1383.34V1378.4L904.362 1372.48C905.241 1372.48 907.066 1372.88 907.33 1374.46C907.659 1376.43 908.648 1384.65 908.648 1386.96C908.648 1388.8 909.748 1393.87 910.297 1396.17C909.748 1398.58 908.319 1404.13 907 1407.02C905.351 1410.64 903.703 1412.61 903.043 1414.26C902.384 1415.9 897.108 1416.23 895.13 1416.23C893.547 1416.23 893.151 1421.06 893.151 1423.47V1414.26C893.151 1412.29 892.492 1409.98 893.151 1408.34C893.811 1406.69 889.854 1405.71 888.205 1404.72C886.557 1403.73 885.238 1406.04 881.941 1407.02C879.303 1407.81 874.907 1408.67 873.038 1409C872.598 1405.6 871.983 1398.6 873.038 1397.81C874.093 1397.02 872.598 1392.88 871.719 1390.9L881.941 1382.02C883.26 1380.16 886.161 1376.17 887.216 1375.12C888.271 1374.06 889.414 1375.55 889.854 1376.43C890.733 1374.57 892.756 1370.84 893.811 1370.84C895.13 1370.84 898.427 1372.16 900.076 1372.48Z" fill="white"/><path fill-rule="evenodd" clip-rule="evenodd" d="M749.721 1274.79L751.369 1267.22H757.634C757.085 1266.46 756.315 1264.79 757.634 1264.26C758.953 1263.74 762.14 1262.51 763.569 1261.96L767.196 1259.33H775.11L772.802 1253.74C772.032 1252.42 770.955 1249.53 772.802 1248.47C773.78 1247.92 774.166 1247.24 774.562 1246.55C775.1 1245.6 775.658 1244.63 777.747 1243.87C780.649 1242.82 785.331 1240.36 787.309 1239.26H793.245C794.563 1239.26 800.608 1242.33 803.466 1243.87L814.017 1241.24L824.239 1236.3L833.141 1232.36C836.109 1230.6 842.571 1227.62 844.682 1229.72C846.792 1231.83 853.255 1234.99 856.222 1236.3H870.4H880.622H885.238L894.47 1239.26H905.351L918.54 1241.24L922.167 1248.47L916.892 1250.12L911.286 1248.47L913.924 1253.74C916.012 1256.15 919.859 1260.64 918.54 1259.33C917.221 1258.01 911.396 1255.05 908.648 1253.74V1261.96L911.286 1270.84L905.351 1267.22L902.384 1259.33V1250.12L898.097 1256.04H891.832L885.238 1261.96L891.832 1264.26L895.789 1268.54L894.47 1274.79C892.162 1276.54 887.678 1280.38 888.205 1281.7C888.733 1283.01 890.843 1287.51 891.832 1289.59L888.205 1291.89L885.238 1285.64L879.303 1282.68L880.622 1291.89V1300.78L879.303 1307.68L870.4 1310.97L865.125 1315.58L863.146 1327.75H856.222L852.265 1313.6L847.979 1310.97L839.736 1318.87L836.768 1327.75L829.844 1325.45V1310.97L826.217 1307.68L818.963 1300.78H812.369L803.466 1291.89L806.104 1300.78L814.017 1304.06L807.752 1310.97L798.52 1313.6L795.553 1315.58C796.322 1314.59 797.399 1311.96 795.553 1309.33C793.706 1306.7 789.288 1298.14 787.309 1294.2V1300.78L793.245 1313.6L798.52 1318.87L806.104 1315.58L800.828 1325.45L793.245 1332.35L787.309 1336.63H777.747L772.802 1338.6V1348.47C773.571 1350.01 775.11 1353.01 775.11 1352.75C775.11 1352.48 779.506 1349.79 781.704 1348.47V1356.04L784.012 1360.64V1364.92H787.309C789.068 1363.49 793.179 1360.64 795.553 1360.64H800.828C802.108 1360.64 803.078 1361.18 804.076 1361.74C805.134 1362.33 806.225 1362.94 807.752 1362.94H814.017C814.677 1364.48 816.193 1367.55 816.985 1367.55H821.931C822.458 1367.55 824.349 1369.74 825.228 1370.84V1375.12L836.439 1378.4L843.363 1383.34V1387.94C841.824 1389.37 838.747 1392.42 838.747 1393.21C838.747 1394 837.208 1400.33 836.439 1403.4L832.812 1409L825.228 1409.98V1416.23C824.129 1416.67 821.931 1417.75 821.931 1418.54C821.931 1418.85 822.067 1419.27 822.209 1419.71C822.506 1420.62 822.825 1421.6 821.931 1421.83C820.876 1422.09 819.073 1423.03 818.304 1423.47L814.017 1421.83L818.304 1426.43L814.017 1428.73H809.401L811.709 1432.35C810.72 1432.68 808.61 1433.54 808.082 1434.32C807.555 1435.11 806.543 1436.41 806.104 1436.96L807.093 1439.92L806.104 1444.52L807.093 1449.78L809.401 1452.09C807.093 1451.65 802.477 1450.57 802.477 1449.78C802.477 1449 799.619 1445.95 798.19 1444.52C797.861 1442.44 797.201 1438.01 797.201 1436.96C797.201 1435.9 797.861 1427.53 798.19 1423.47C798.52 1420.95 799.18 1415.58 799.18 1414.26V1404.72L792.915 1400.44L788.958 1392.22L784.672 1386.3L786.32 1380.05V1376.76L790.936 1372.81L788.958 1367.55H784.012L780.715 1364.92L775.11 1357.68L767.196 1358.67C765.657 1357.57 762.514 1355.12 762.25 1354.06C761.987 1353.01 759.942 1347.27 758.953 1344.52L751.369 1335.31L752.359 1327.75L749.061 1325.45L744.115 1326.76L739.499 1325.45C738.4 1323.69 736.202 1319.72 736.202 1317.88C736.202 1316.04 734.883 1312.51 734.224 1310.97C734.883 1309.11 736.202 1305.12 736.202 1304.06C736.202 1303.01 735.543 1299.02 735.213 1297.16L742.467 1287.29L745.105 1283.67C744.445 1282.46 743.522 1280.05 745.105 1280.05C747.083 1280.05 749.721 1280.05 749.721 1279.07V1274.79ZM757.634 1274.79L752.359 1277.09L753.348 1280.05L758.953 1278.08C760.931 1277.75 765.086 1277.29 765.877 1278.08C766.669 1278.87 767.086 1281.48 767.196 1282.68C768.735 1284.22 772.01 1287.29 772.802 1287.29C773.791 1287.29 775.11 1285.64 775.11 1283.67C775.11 1282.06 776.857 1284.38 778.218 1286.18C778.53 1286.6 778.821 1286.98 779.066 1287.29C780.385 1288.93 786.32 1288.6 787.309 1288.28C788.299 1287.95 793.245 1283.67 793.245 1282.68C793.245 1282.15 791.983 1282.48 790.408 1282.9C789.079 1283.26 787.527 1283.67 786.32 1283.67C783.933 1283.67 783.976 1280.71 784.006 1278.68C784.009 1278.47 784.012 1278.27 784.012 1278.08C784.012 1276.5 786.21 1275.89 787.309 1275.78C790.057 1276.21 795.948 1277.09 797.531 1277.09C798.802 1277.09 797.623 1275.19 796.617 1273.57C796.058 1272.67 795.553 1271.85 795.553 1271.5C795.553 1270.79 792.141 1271.1 789.612 1271.33C788.625 1271.42 787.772 1271.5 787.309 1271.5C785.991 1271.5 784.562 1273.69 784.012 1274.79C782.913 1276.21 780.715 1279.26 780.715 1280.05C780.715 1280.84 778.737 1276.21 777.747 1273.8L772.802 1270.18L775.11 1273.8V1277.09C774.67 1277.75 773.593 1279.07 772.802 1279.07C771.812 1279.07 771.812 1275.78 771.812 1274.79C771.812 1274 770.713 1270.29 770.164 1268.54L762.25 1270.18L757.634 1274.79ZM776.429 1256.04C777.747 1256.04 785.001 1252.42 784.012 1251.76C783.469 1251.4 784.219 1250.05 785.005 1248.63C785.651 1247.46 786.32 1246.25 786.32 1245.51C786.32 1243.87 792.255 1243.87 790.936 1245.51C789.881 1246.83 787.419 1250.23 786.32 1251.76C788.848 1251.32 793.772 1250.71 793.245 1251.76C792.717 1252.82 790.827 1253.52 789.947 1253.74C788.409 1254.07 785.199 1254.86 784.672 1255.38C784.144 1255.91 780.715 1258.23 779.066 1259.33L776.429 1256.04ZM805.115 1271.5C806.763 1271.83 810.258 1272.55 811.05 1272.82C810.5 1273.47 809.401 1274.99 809.401 1275.78C809.401 1276.76 811.05 1278.08 812.369 1279.07C813.424 1279.85 811.709 1281.15 810.72 1281.7V1284.33L807.752 1285.64L805.115 1282.68V1279.07L803.466 1274.79L805.115 1271.5Z" fill="white"/></g><ellipse cx="827.615" cy="1335.25" rx="338.615" ry="159.993" stroke="#1AB8ED" stroke-width="6"/><ellipse cx="827.615" cy="1335.25" rx="338.615" ry="159.993" transform="rotate(-60 827.615 1335.25)" stroke="#1AB8ED" stroke-width="6"/><path d="M996.923 1628.5C950.673 1655.2 882.027 1630.89 814.307 1571.71C769.98 1532.98 726.05 1479.32 689.058 1415.24C652.549 1352.01 628.196 1287.99 616.627 1230.81C598.566 1141.54 611.663 1068.93 658.308 1042C734.832 997.818 872.668 1093.29 966.174 1255.25C1059.68 1417.21 1073.45 1584.32 996.923 1628.5Z" stroke="#1AB8ED" stroke-width="6"/><path d="M1166.23 1335.27C1166.23 1423.46 1014.63 1494.94 827.615 1494.94C640.603 1494.94 489 1423.46 489 1335.27" stroke="#1AB8ED" stroke-width="6"/><path d="M996.923 1042.03C1073.45 1086.21 1059.68 1253.32 966.173 1415.27C872.667 1577.23 734.831 1672.71 658.308 1628.53" stroke="#1AB8ED" stroke-width="6"/><path d="M658.758 1042.75C582.235 1086.93 596.002 1254.04 689.508 1416C783.014 1577.95 920.85 1673.43 997.373 1629.25" stroke="#1AB8ED" stroke-width="6"/></svg> -->
<svg width="100" height="100" viewBox="0 0 32 32" fill="none" xmlns="http://www.w3.org/2000/svg"><ellipse cx="16" cy="15.9852" rx="13" ry="6.1424" stroke="#1AB8ED" stroke-width="1.4"/><ellipse cx="16.0001" cy="15.9857" rx="13" ry="6.1424" transform="rotate(-60 16.0001 15.9857)" stroke="#1AB8ED" stroke-width="1.4"/><path d="M22.4999 27.2441C20.7242 28.2693 18.0888 27.3359 15.4889 25.0641C13.7871 23.5772 12.1006 21.5168 10.6804 19.057C9.27877 16.6293 8.34382 14.1715 7.89967 11.9761C7.20625 8.54882 7.70907 5.76137 9.49987 4.72745C12.4377 3.03127 17.7295 6.69678 21.3193 12.9146C24.9092 19.1324 25.4377 25.5479 22.4999 27.2441Z" stroke="#1AB8ED" stroke-width="1.4"/><circle cx="16" cy="16" r="7" fill="#5D94E7"/><mask id="mask0_27_263" style="mask-type:alpha" maskUnits="userSpaceOnUse" x="9" y="9" width="14" height="14"><circle cx="16" cy="16" r="7" fill="#1AB8ED"/></mask><g mask="url(#mask0_27_263)"><path d="M20.6505 12.1814V11.7027L20.8468 12.0291C20.8759 12.1307 20.934 12.3425 20.934 12.3773C20.934 12.4208 20.8686 12.4861 20.8468 12.4861C20.825 12.4861 20.8686 12.7472 20.934 12.7472C20.9864 12.7472 20.7668 13.0229 20.6505 13.1607L20.4105 13.313L20.1488 13.4218V13.1607C20.2215 13.1244 20.3756 13.0432 20.4105 13.0083C20.4541 12.9648 20.6505 12.6602 20.6505 12.5514V12.1814Z" fill="#75FD44"/><path d="M19.4944 14.5316L19.5816 14.2922L19.6907 14.3997L19.616 14.5316H19.4944Z" fill="#75FD44"/><path d="M20.7813 17.2082C20.9195 17.1864 21.2045 17.1429 21.2394 17.1429C21.3775 17.2517 21.6669 17.4693 21.7193 17.4693C21.7716 17.4693 22.0028 17.861 22.1119 18.0568L21.9156 17.948L21.4575 17.6869C21.4284 17.8175 21.3659 18.0916 21.3485 18.1439C21.331 18.1961 21.1958 18.1656 21.1303 18.1439C21.1667 18.0133 21.2394 17.7391 21.2394 17.6869C21.2394 17.6347 21.1667 17.5201 21.1303 17.4693L20.7813 17.404V17.2082Z" fill="#75FD44"/><path d="M19.4944 16.5336C19.2981 16.5336 19.5816 16.2072 19.5816 16.1419C19.458 16.2362 19.189 16.4465 19.1018 16.5336C18.9927 16.6424 18.9054 16.8165 18.8182 16.9253C18.7484 17.0123 18.8473 17.1501 18.9054 17.2082C19.0145 17.2734 19.2414 17.404 19.2763 17.404C19.3112 17.404 19.4362 17.1429 19.4944 17.0123C19.4944 17.1429 19.4769 17.4345 19.4071 17.5563C19.3199 17.7087 19.7998 17.6869 19.8434 17.7304C19.887 17.7739 19.7998 17.4693 19.7998 17.404C19.7998 17.3387 19.9525 17.1429 19.9306 17.0123C19.9088 16.8817 19.6253 16.9688 19.5816 16.9253C19.538 16.8817 19.7343 16.7512 19.7998 16.6424C19.8652 16.5336 19.6907 16.5336 19.4944 16.5336Z" fill="#75FD44"/><path d="M20.7813 18.492C20.8904 18.5138 20.6723 18.8184 20.6723 18.8837L20.9777 19.2101V18.8837L21.0649 18.492C21.1231 18.492 21.2438 18.5182 21.2612 18.6226C21.283 18.7532 21.3485 19.2972 21.3485 19.4495C21.3485 19.5714 21.4212 19.9065 21.4575 20.0588C21.4212 20.2184 21.3267 20.5854 21.2394 20.7769C21.1303 21.0163 21.0213 21.1468 20.9777 21.2556C20.934 21.3645 20.585 21.3862 20.4541 21.3862C20.3494 21.3862 20.3233 21.7054 20.3233 21.8649V21.2556C20.3233 21.1251 20.2796 20.9728 20.3233 20.864C20.3669 20.7552 20.1051 20.6899 19.9961 20.6246C19.887 20.5593 19.7998 20.7116 19.5816 20.7769C19.4071 20.8291 19.1163 20.8857 18.9927 20.9075C18.9636 20.6826 18.9229 20.2198 18.9927 20.1676C19.0625 20.1154 18.9636 19.8412 18.9054 19.7106L19.5816 19.1231C19.6689 18.9998 19.8608 18.7358 19.9306 18.6661C20.0004 18.5965 20.0761 18.6951 20.1051 18.7532C20.1633 18.6299 20.2971 18.3832 20.3669 18.3832C20.4541 18.3832 20.6723 18.4703 20.7813 18.492Z" fill="#75FD44"/><path fill-rule="evenodd" clip-rule="evenodd" d="M10.8348 12.0291L10.9438 11.5286H11.3583C11.3219 11.4778 11.271 11.3676 11.3583 11.3328C11.4455 11.298 11.6564 11.2167 11.7509 11.1804L11.9908 11.0064H12.5143L12.3617 10.6364C12.3108 10.5494 12.2395 10.3579 12.3617 10.2883C12.4264 10.2514 12.4519 10.2066 12.4781 10.1607C12.5137 10.0983 12.5506 10.0338 12.6888 9.98361C12.8808 9.91398 13.1905 9.7515 13.3214 9.67896H13.714C13.8013 9.67896 14.2012 9.88206 14.3902 9.98361L15.0882 9.80952L15.7644 9.48311L16.3534 9.22199C16.5497 9.10593 16.9772 8.90863 17.1168 9.0479C17.2564 9.18717 17.6839 9.39607 17.8803 9.48311H18.8182H19.4944H19.7998L20.4105 9.67896H21.1303L22.0028 9.80952L22.2428 10.2883L21.8938 10.3971L21.523 10.2883L21.6975 10.6364C21.8356 10.796 22.0901 11.0934 22.0028 11.0064C21.9156 10.9193 21.5302 10.7235 21.3485 10.6364V11.1804L21.523 11.768L21.1303 11.5286L20.934 11.0064V10.3971L20.6505 10.7888H20.236L19.7998 11.1804L20.236 11.3328L20.4978 11.6157L20.4105 12.0291C20.2578 12.1452 19.9612 12.399 19.9961 12.4861C20.031 12.5731 20.1706 12.8705 20.236 13.0083L19.9961 13.1607L19.7998 12.7472L19.4071 12.5514L19.4944 13.1607V13.7482L19.4071 14.2052L18.8182 14.4228L18.4692 14.7274L18.3383 15.5326H17.8803L17.6185 14.5969L17.3349 14.4228L16.7896 14.945L16.5933 15.5326L16.1352 15.3803V14.4228L15.8953 14.2052L15.4154 13.7482H14.9792L14.3902 13.1607L14.5647 13.7482L15.0882 13.9658L14.6738 14.4228L14.063 14.5969L13.8667 14.7274C13.9176 14.6622 13.9889 14.4881 13.8667 14.314C13.7446 14.1399 13.4523 13.5741 13.3214 13.313V13.7482L13.714 14.5969L14.063 14.945L14.5647 14.7274L14.2157 15.3803L13.714 15.8372L13.3214 16.1201H12.6888L12.3617 16.2507V16.9035C12.4125 17.0051 12.5143 17.2038 12.5143 17.1864C12.5143 17.169 12.8052 16.9906 12.9506 16.9035V17.404L13.1033 17.7087V17.9915H13.3214C13.4377 17.8972 13.7097 17.7087 13.8667 17.7087H14.2157C14.3004 17.7087 14.3645 17.7445 14.4306 17.7815C14.5006 17.8206 14.5727 17.861 14.6738 17.861H15.0882C15.1319 17.9625 15.2322 18.1656 15.2845 18.1656H15.6117C15.6466 18.1656 15.7717 18.3107 15.8299 18.3832V18.6661L16.5715 18.8837L17.0296 19.2101V19.5148C16.9278 19.6091 16.7242 19.8107 16.7242 19.863C16.7242 19.9152 16.6224 20.3344 16.5715 20.5375L16.3316 20.9075L15.8299 20.9728V21.3862C15.7572 21.4152 15.6117 21.4863 15.6117 21.5385C15.6117 21.5595 15.6208 21.5873 15.6301 21.616C15.6498 21.6766 15.6709 21.7414 15.6117 21.7561C15.5419 21.7736 15.4227 21.8359 15.3718 21.8649L15.0882 21.7561L15.3718 22.0608L15.0882 22.2131H14.7829L14.9355 22.4525C14.8701 22.4742 14.7305 22.5308 14.6956 22.583C14.6607 22.6353 14.5938 22.7209 14.5647 22.7571L14.6302 22.953L14.5647 23.2576L14.6302 23.6058L14.7829 23.7581C14.6302 23.7291 14.3248 23.658 14.3248 23.6058C14.3248 23.5536 14.1357 23.3519 14.0412 23.2576C14.0194 23.1198 13.9758 22.8268 13.9758 22.7571C13.9758 22.6875 14.0194 22.1333 14.0412 21.8649C14.063 21.6981 14.1067 21.3427 14.1067 21.2556V20.6246L13.6922 20.3417L13.4305 19.7977L13.1469 19.406L13.256 18.9925V18.7749L13.5613 18.5138L13.4305 18.1656H13.1033L12.8852 17.9915L12.5143 17.5128L11.9908 17.5781C11.889 17.5056 11.6811 17.3431 11.6636 17.2734C11.6462 17.2038 11.511 16.8237 11.4455 16.6424L10.9438 16.0331L11.0093 15.5326L10.7911 15.3803L10.464 15.4673L10.1586 15.3803C10.0859 15.2642 9.94045 15.0016 9.94045 14.8798C9.94045 14.7579 9.8532 14.5243 9.80957 14.4228C9.8532 14.2995 9.94045 14.0354 9.94045 13.9658C9.94045 13.8962 9.89682 13.6322 9.87501 13.5088L10.3549 12.856L10.5294 12.6167C10.4858 12.5369 10.4247 12.3773 10.5294 12.3773C10.6603 12.3773 10.8348 12.3773 10.8348 12.312V12.0291ZM11.3583 12.0291L11.0093 12.1814L11.0747 12.3773L11.4455 12.2467C11.5764 12.225 11.8512 12.1945 11.9036 12.2467C11.9559 12.2989 11.9836 12.4716 11.9908 12.5514C12.0926 12.6529 12.3093 12.856 12.3617 12.856C12.4271 12.856 12.5143 12.7472 12.5143 12.6167C12.5143 12.5104 12.6299 12.6636 12.72 12.7829C12.7406 12.8102 12.7599 12.8358 12.7761 12.856C12.8633 12.9648 13.256 12.9431 13.3214 12.9213C13.3868 12.8995 13.714 12.6167 13.714 12.5514C13.714 12.516 13.6306 12.5382 13.5264 12.5659C13.4385 12.5893 13.3358 12.6167 13.256 12.6167C13.098 12.6167 13.1009 12.4206 13.1029 12.2865C13.1031 12.2725 13.1033 12.2591 13.1033 12.2467C13.1033 12.1423 13.2487 12.1016 13.3214 12.0944C13.5032 12.1234 13.8929 12.1814 13.9976 12.1814C14.0817 12.1814 14.0037 12.0556 13.9372 11.9484C13.9002 11.8888 13.8667 11.8348 13.8667 11.8115C13.8667 11.7646 13.6411 11.7851 13.4738 11.8004C13.4084 11.8064 13.352 11.8115 13.3214 11.8115C13.2342 11.8115 13.1396 11.9566 13.1033 12.0291C13.0306 12.1234 12.8852 12.3251 12.8852 12.3773C12.8852 12.4295 12.7543 12.1234 12.6888 11.9638L12.3617 11.7245L12.5143 11.9638V12.1814C12.4853 12.225 12.414 12.312 12.3617 12.312C12.2962 12.312 12.2962 12.0944 12.2962 12.0291C12.2962 11.9769 12.2235 11.7317 12.1872 11.6157L11.6636 11.7245L11.3583 12.0291ZM12.6016 10.7888C12.6888 10.7888 13.1687 10.5494 13.1033 10.5059C13.0673 10.482 13.117 10.3924 13.169 10.2985C13.2117 10.2214 13.256 10.1414 13.256 10.0924C13.256 9.98361 13.6486 9.98361 13.5613 10.0924C13.4915 10.1795 13.3287 10.4043 13.256 10.5059C13.4232 10.4769 13.7489 10.4362 13.714 10.5059C13.6791 10.5755 13.5541 10.6219 13.4959 10.6364C13.3941 10.6582 13.1818 10.7104 13.1469 10.7452C13.112 10.7801 12.8852 10.9338 12.7761 11.0064L12.6016 10.7888ZM14.4993 11.8115C14.6084 11.8333 14.8396 11.8811 14.8919 11.8985C14.8556 11.9421 14.7829 12.0422 14.7829 12.0944C14.7829 12.1597 14.8919 12.2467 14.9792 12.312C15.049 12.3642 14.9355 12.4498 14.8701 12.4861V12.6602L14.6738 12.7472L14.4993 12.5514V12.312L14.3902 12.0291L14.4993 11.8115Z" fill="#75FD44"/></g><path d="M29 15.9873C29 19.3729 23.1797 22.1174 16 22.1174C8.8203 22.1174 3 19.3729 3 15.9873" stroke="#1AB8ED" stroke-width="1.4"/><path d="M22.501 4.72943C25.4388 6.42561 24.9103 12.8412 21.3204 19.059C17.7306 25.2768 12.4388 28.9423 9.50098 27.2461" stroke="#1AB8ED" stroke-width="1.4"/><path d="M9.51674 4.75687C6.57888 6.45304 7.10742 12.8686 10.6973 19.0864C14.2871 25.3042 19.5789 28.9697 22.5167 27.2735" stroke="#1AB8ED" stroke-width="1.4"/></svg>