<svg width="32" height="32" viewBox="0 0 32 32" fill="none" xmlns="http://www.w3.org/2000/svg">
<g clip-path="url(#clip0_32_128)">
<path fill-rule="evenodd" clip-rule="evenodd" d="M22.3664 22.0416L22.3669 22.0419L22.3319 22.0651L22.3267 22.0659C22.325 22.0662 22.3233 22.0665 22.3216 22.0669L22.3664 22.0416ZM27.0921 4.93576C27.1095 5.13192 27.1201 5.32463 27.1202 5.52164C27.1669 5.97297 27.1418 6.4432 27.1174 6.90029C27.1134 6.97534 27.1094 7.05004 27.1058 7.12425C27.0221 8.82582 26.798 10.4691 26.2963 12.1024C26.1371 12.6206 25.9591 13.1493 25.7175 13.6356C25.5575 13.4563 25.4041 13.2721 25.2506 13.0878C25.0742 12.876 24.8977 12.6642 24.7112 12.4598C24.9905 12.2584 25.2682 12.0549 25.5443 11.8492C25.1658 11.9317 24.6899 11.9714 24.3018 11.9317C24.2854 11.9157 24.2689 11.8998 24.2525 11.8839C24.203 11.836 24.1534 11.7881 24.1062 11.7381C24.5903 11.3235 25.1293 10.9466 25.6547 10.586C25.3092 10.6973 24.9622 10.7995 24.6151 10.9017C24.3986 10.9654 24.1821 11.0292 23.9659 11.0952C24.2554 10.7636 24.5898 10.4553 24.9221 10.1675C24.9766 10.1203 25.033 10.0743 25.0894 10.0283C25.192 9.94471 25.295 9.86082 25.3877 9.76864C24.8243 10.0481 24.2532 10.3077 23.6608 10.5204C23.8109 10.3808 23.9492 10.2256 24.0867 10.0713C24.1335 10.0188 24.1802 9.96646 24.2272 9.91484C24.49 9.62635 24.7448 9.33079 24.9996 9.03525C25.2838 8.70561 25.568 8.376 25.8632 8.05628C25.6345 8.19737 25.4238 8.40205 25.222 8.59816C25.1579 8.66047 25.0946 8.72191 25.032 8.78017L24.9834 8.82542C24.2687 9.4901 23.6482 10.0673 23.0202 10.8355C23.6652 9.36648 24.7072 7.89908 25.6783 6.6179C25.7146 6.57 25.7535 6.51374 25.7944 6.45465C25.9011 6.30022 26.0212 6.12652 26.1434 6.03258C26.3831 5.69634 26.6747 5.38364 26.9586 5.07919C27.0034 5.0312 27.048 4.98341 27.0921 4.93576ZM5.47284 5.10725L5.47293 5.10648C5.47991 5.04442 5.48689 4.9824 5.49373 4.92042C5.63003 4.97684 5.79735 5.19336 5.92182 5.35443C5.95523 5.39766 5.98556 5.4369 6.01136 5.46797C7.10302 6.78209 8.07248 8.18423 8.99356 9.62145C9.06832 9.73813 9.14917 9.85686 9.23097 9.97697C9.41289 10.2441 9.59948 10.5181 9.73412 10.7916C9.15813 10.1519 8.50751 9.54128 7.85995 8.97475C7.80868 8.92991 7.75792 8.88367 7.707 8.83728C7.58134 8.72281 7.45475 8.6075 7.31743 8.5104C7.36474 8.62065 7.66979 8.94143 7.90102 9.18459C7.99852 9.28712 8.08289 9.37584 8.1293 9.42918C8.44489 9.79204 8.76488 10.1632 9.03801 10.5598C8.42431 10.3362 7.92351 10.0346 7.39566 9.71667C7.23886 9.62223 7.07966 9.52636 6.91441 9.43067C7.04975 9.59694 7.21449 9.73961 7.38106 9.87345C7.43042 9.91675 7.54671 10.013 7.69097 10.1324C8.08069 10.4549 8.67458 10.9464 8.70469 11.0197C8.70198 11.0252 8.69981 11.0301 8.69784 11.0346C8.68992 11.0526 8.68518 11.0633 8.66126 11.075C8.44741 11.1793 7.22962 10.7437 6.95094 10.6409C7.19222 10.8168 7.43986 10.9831 7.68749 11.1493C7.88615 11.2826 8.08482 11.416 8.28019 11.5543C8.23208 11.6291 8.18099 11.7021 8.12993 11.775L8.10031 11.8173L8.0868 11.8367C7.66584 11.9067 7.44002 11.8281 7.06057 11.6597C7.25331 11.8396 7.47912 11.9888 7.70078 12.1352C7.7462 12.1652 7.79168 12.1953 7.83642 12.2253C7.57437 12.4803 7.00878 13.3312 6.80572 13.6706C6.67017 13.311 6.55845 12.943 6.4468 12.5752C6.40599 12.4408 6.36519 12.3064 6.32325 12.1725C6.30529 12.1152 6.28728 12.0579 6.26926 12.0006C6.1293 11.5553 5.9894 11.1102 5.87569 10.6572C5.51065 9.20297 5.31611 7.62828 5.38141 6.12827C5.39629 5.78729 5.43462 5.44676 5.47284 5.10725ZM15.6172 23.6253C15.7729 23.558 15.9188 23.4752 16.0649 23.3894C16.1818 23.3709 17.7545 24.1475 17.9405 24.2694C17.9451 24.5431 17.8454 24.7204 17.6655 24.9204C17.4221 25.1908 16.9432 25.6865 16.6076 25.8146C16.4602 25.8709 16.303 25.8786 16.1472 25.8863L16.1155 25.8879C16 25.8828 15.8744 25.875 15.7614 25.8512C15.3241 25.7595 14.5769 25.12 14.3383 24.7516C14.2684 24.6437 14.2104 24.5125 14.2456 24.3821C14.3151 24.124 14.9827 23.8698 15.3883 23.7154C15.4822 23.6796 15.562 23.6492 15.6172 23.6253Z" fill="#58000E"/>
<path fill-rule="evenodd" clip-rule="evenodd" d="M8.3027 22.046L8.76177 22.5106C8.80052 22.5431 8.83768 22.5804 8.87484 22.6177C8.92288 22.6659 8.97094 22.7142 9.0225 22.7521C9.13948 23.1178 8.68227 24.9181 8.4242 25.9343C8.3574 26.1973 8.30395 26.4078 8.27725 26.5272L16.6076 29.9135L24.4741 26.4948C24.398 26.4403 23.5523 23.8022 23.4554 23.4955C23.4453 23.4687 23.4342 23.4409 23.4227 23.4126C23.3869 23.3235 23.3487 23.2288 23.3355 23.1401C23.3251 23.0693 23.3435 23.0467 23.38 23.0019C23.3849 22.9958 23.3902 22.9894 23.3958 22.9823C23.5194 22.8368 23.6479 22.6955 23.7764 22.5542C23.8849 22.435 23.9934 22.3158 24.0989 22.194C24.2006 22.0766 24.3011 21.9586 24.4015 21.8407C26.7464 19.0873 28.1594 17.411 28.1594 17.411C28.1594 17.411 27.4058 16.4785 27.141 16.1296C26.975 15.9109 26.809 15.6921 26.6563 15.4634C26.6214 15.4325 26.5918 15.3864 26.5642 15.3434L26.5638 15.3428L26.5631 15.3417C26.557 15.3322 26.551 15.3228 26.5451 15.3139C26.5424 15.3099 26.5398 15.3061 26.5373 15.3023C26.9057 14.5953 27.2263 13.8338 27.4432 13.0661C27.4938 12.9237 27.5327 12.7756 27.5715 12.6283C27.5852 12.5762 27.5989 12.5241 27.6131 12.4725C27.6284 12.357 27.658 12.2391 27.6874 12.1222C27.7048 12.0526 27.7222 11.9834 27.7365 11.9153C27.7527 11.8375 27.7665 11.758 27.7803 11.6782C27.8068 11.5257 27.8334 11.3721 27.8778 11.2277C27.8909 10.9865 27.9281 10.7438 27.9654 10.5011C27.9964 10.2987 28.0275 10.0962 28.0445 9.89442C28.0728 9.56074 28.0913 9.22812 28.1016 8.89581L28.0688 6.7864C28.0445 6.60926 28.0433 6.42431 28.0421 6.24047C28.0414 6.11943 28.0406 5.99888 28.0332 5.88135C28.0112 5.52844 27.9821 5.17504 27.953 4.82219L27.9529 4.82138L27.9529 4.82072C27.931 4.55574 27.9091 4.29034 27.8903 4.02538C27.8809 3.89291 27.8749 3.75899 27.8688 3.62479C27.858 3.38302 27.8471 3.14035 27.8161 2.90356L21.9202 7.03013L20.4199 8.07929C20.3635 8.1181 20.3061 8.15982 20.2479 8.20207C20.1104 8.302 19.9687 8.40494 19.8255 8.47962C19.7766 8.51474 19.726 8.55241 19.6742 8.591C19.4813 8.73466 19.2713 8.89108 19.065 8.97612C19.0665 8.9819 19.0676 8.98786 19.0687 8.99382C19.0709 9.00566 19.073 9.01751 19.0786 9.02799C19.1142 9.09451 19.2161 9.17957 19.3064 9.25492C19.3518 9.2928 19.3942 9.32823 19.4238 9.35761C19.5576 9.49036 19.6921 9.62327 19.8263 9.75586C20.2604 10.1846 20.6949 10.6139 21.1176 11.0529C21.6228 11.5777 22.1166 12.1258 22.5971 12.6736C23.5619 13.7736 24.2701 14.8842 24.9373 16.1796C24.9687 16.2405 25.0006 16.3016 25.0326 16.3629L25.0329 16.3634C25.1795 16.644 25.3287 16.9295 25.4394 17.2226C24.9328 17.5659 24.4266 17.9199 23.9196 18.2744C23.0406 18.8891 22.1591 19.5056 21.268 20.0713C20.8602 20.3301 20.4328 20.5665 20.0093 20.8007L19.8931 20.865C19.8242 20.9031 19.753 20.9403 19.6812 20.9777C19.494 21.0752 19.3031 21.1747 19.1397 21.2997C19.1633 21.2945 19.187 21.2892 19.2109 21.2838C19.4452 21.2313 19.6901 21.1764 19.9262 21.239C20.8177 21.0608 21.7785 20.9491 22.6861 21.05L22.7032 21.0519C22.7152 21.0531 22.7273 21.0543 22.7396 21.0555L22.7469 21.0561L22.7741 21.0586C22.865 21.0669 22.959 21.0755 23.0434 21.0994C22.9499 21.1006 22.8585 21.0904 22.7667 21.08C22.7158 21.0743 22.6649 21.0686 22.6133 21.0648C22.4235 21.0509 22.2288 21.0529 22.0385 21.0568C21.4822 21.0684 20.9332 21.1694 20.3869 21.27C20.306 21.2849 20.2253 21.2997 20.1446 21.3143C20.144 21.3177 20.1435 21.3211 20.1429 21.3246C20.1419 21.3312 20.1409 21.3378 20.1395 21.3443C20.1347 21.3667 20.134 21.3731 20.1313 21.3784C20.1299 21.381 20.128 21.3834 20.1249 21.3875C20.1223 21.3908 20.1188 21.3952 20.1141 21.4017C20.0933 21.4305 20.0908 21.4538 20.0873 21.4856C20.0868 21.49 20.0863 21.4946 20.0858 21.4994C20.1344 21.5904 20.1809 21.6813 20.2246 21.7748C20.8637 21.7874 21.478 21.825 22.104 21.9648C22.1226 21.9689 22.1432 21.9726 22.1647 21.9764C22.2351 21.989 22.3152 22.0033 22.3664 22.0416L22.3737 22.0374L22.3669 22.0419C22.3682 22.0429 22.3694 22.0439 22.3707 22.0449L22.3729 22.0467L22.3753 22.0487C22.3639 22.0605 22.3505 22.0624 22.3356 22.0645L22.3319 22.0651L22.3244 22.07L22.3163 22.0651C22.3131 22.0631 22.3098 22.0611 22.3065 22.0592C22.0524 21.9131 21.3939 21.8964 21.0956 21.8965C20.8956 21.9169 20.6846 21.9116 20.4772 21.9065C20.3883 21.9043 20.3 21.9021 20.2136 21.9019C20.2132 21.9212 20.2119 21.953 20.2102 21.9923C20.2034 22.1516 20.1914 22.4326 20.2206 22.4841C20.2374 22.5138 20.3941 22.5554 20.583 22.6055C20.861 22.6793 21.2089 22.7716 21.2839 22.872C21.2637 22.8926 21.1143 22.8393 20.9258 22.7721C20.6236 22.6644 20.2209 22.5208 20.0886 22.5882C20.0002 22.6332 19.9172 22.7298 19.8384 22.8215C19.7949 22.8721 19.7527 22.9212 19.7116 22.9593C19.6595 23.0073 19.6061 23.054 19.5515 23.0992C19.4968 23.1444 19.441 23.1882 19.3841 23.2305C19.3272 23.2728 19.2692 23.3136 19.2101 23.3528C19.1511 23.3921 19.091 23.4298 19.03 23.4659C18.9689 23.502 18.907 23.5364 18.8441 23.5693C18.7812 23.6021 18.7176 23.6333 18.6531 23.6628C18.5886 23.6923 18.5234 23.7201 18.4574 23.7462C18.3914 23.7723 18.3248 23.7966 18.2576 23.8192C17.8791 23.7123 16.7837 23.3253 16.5286 23.0668C16.4033 22.9399 16.407 22.691 16.4098 22.5003C16.4102 22.469 16.4107 22.4392 16.4105 22.4118C16.531 22.2849 16.6566 22.159 16.7828 22.0324C17.0598 21.7547 17.3399 21.4738 17.5762 21.1719C17.6416 21.0883 17.7095 20.9994 17.6916 20.8873C17.69 20.8771 17.688 20.8669 17.6853 20.8568C17.6828 20.8468 17.6797 20.8369 17.676 20.8271C17.6724 20.8174 17.6683 20.8078 17.6637 20.7985C17.6591 20.7892 17.654 20.7801 17.6485 20.7713C17.6429 20.7625 17.6369 20.7541 17.6305 20.7459C17.6241 20.7377 17.6172 20.7299 17.61 20.7224C17.6028 20.7149 17.5952 20.7079 17.5872 20.7012C17.5793 20.6945 17.571 20.6882 17.5624 20.6824C17.3998 20.5714 15.4774 20.6461 15.1362 20.6789C14.845 20.707 14.5605 20.7584 14.2745 20.8191C14.3641 21.0329 14.473 21.2255 14.638 21.3908C14.773 21.526 14.956 21.643 15.1433 21.7628C15.4888 21.9838 15.8491 22.2143 15.9505 22.5857C15.9806 22.696 15.967 22.8087 15.9087 22.9073C15.7143 23.2358 14.4566 23.6823 14.0508 23.7873C13.4688 23.6436 12.9063 23.2141 12.4761 22.8085C12.4349 22.7697 12.3951 22.7228 12.355 22.6755C12.2951 22.605 12.2344 22.5335 12.1672 22.4865C12.0601 22.4115 11.7775 22.557 11.5289 22.685C11.3796 22.7619 11.2425 22.8325 11.1631 22.8452L11.1535 22.819C11.2507 22.7396 11.5495 22.6174 11.789 22.5195C11.959 22.45 12.0991 22.3927 12.1164 22.3715C12.1399 22.28 12.0341 22.0971 11.9554 21.961C11.9294 21.916 11.9063 21.8761 11.8919 21.8464C11.7855 21.8445 11.4982 21.8645 11.2171 21.884C10.9049 21.9057 10.6004 21.9269 10.5603 21.917C10.7468 21.8037 11.5682 21.7738 11.8236 21.7647C11.7826 21.6994 11.7447 21.6247 11.7062 21.5485C11.6355 21.4087 11.5624 21.2641 11.4626 21.165C11.4129 21.1156 11.35 21.0846 11.2815 21.0712C11.1415 21.0439 10.0786 21.0104 9.93932 21.0315C9.92824 21.0332 9.91762 21.0371 9.90675 21.0399L9.89639 21.0082L9.8767 21.0232L9.87355 21.0084C10.0256 20.934 10.7088 20.9659 11.1503 20.9865C11.2773 20.9924 11.3843 20.9974 11.4529 20.9987C11.273 20.6909 11.0177 20.3934 10.7841 20.1241C9.72193 18.9 8.45291 17.9412 7.07464 17.102C7.26104 16.6313 7.48848 16.1658 7.71669 15.7141C7.75008 15.6479 7.78323 15.5818 7.81634 15.5157C7.98048 15.1881 8.14393 14.8618 8.33394 14.5473C9.24385 13.0408 10.4614 11.711 11.6816 10.4512C11.8856 10.2406 12.1039 10.0319 12.3226 9.82285C12.6301 9.52886 12.9384 9.23411 13.2087 8.93238L13.2207 8.91883C12.9843 8.78105 12.749 8.59952 12.5273 8.42852C12.4954 8.40394 12.4638 8.37958 12.4326 8.35559C12.3229 8.29809 12.2138 8.21528 12.1083 8.13519C12.0618 8.09985 12.0159 8.06504 11.971 8.03317C11.5874 7.75929 11.2056 7.48295 10.8256 7.20412C10.5871 7.02985 10.3499 6.85342 10.1129 6.67714C9.80684 6.44952 9.50079 6.22191 9.19168 5.99861C9.06001 5.90349 8.92623 5.81078 8.79241 5.71804C8.5693 5.56342 8.34607 5.40871 8.13228 5.24262C7.99671 5.1852 7.68646 4.94876 7.45185 4.76998C7.36131 4.70098 7.28204 4.64057 7.22843 4.60235C7.09275 4.50565 6.95703 4.40852 6.82117 4.31128C6.16201 3.83953 5.49937 3.36529 4.82094 2.92582L4.78944 2.93678L4.78194 3.00515C4.78609 3.35442 4.72833 3.73206 4.67211 4.09961C4.64576 4.27186 4.61975 4.4419 4.60061 4.60576C4.56969 4.8706 4.54429 5.13914 4.52323 5.40887L4.4489 7.54361C4.46519 8.04801 4.50794 8.5519 4.5506 9.05468L4.55079 9.05697L4.55092 9.0585L4.55105 9.06001C4.55627 9.12146 4.56148 9.1829 4.56664 9.24431C4.57793 9.37857 4.58543 9.51335 4.59292 9.64812C4.60246 9.81958 4.61199 9.99101 4.62934 10.1613C4.64333 10.2985 4.66177 10.4348 4.68021 10.5711C4.70594 10.7613 4.73166 10.9513 4.74524 11.1437C4.74581 11.1518 4.74643 11.1597 4.74704 11.1674C4.75225 11.2341 4.75639 11.287 4.72239 11.3506C4.76921 11.5232 4.80796 11.6991 4.84674 11.875C4.89947 12.1143 4.95222 12.3537 5.02532 12.5852C5.06542 12.7506 5.11025 12.9147 5.1598 13.0776C5.23024 13.2946 5.29438 13.5134 5.35851 13.7323C5.43339 13.9878 5.50826 14.2434 5.59317 14.4959C5.60872 14.545 5.62358 14.595 5.6385 14.6453C5.67503 14.7683 5.71199 14.8928 5.76077 15.0087L5.76367 15.0361L5.86622 15.3966C5.64691 15.7231 5.39978 16.029 5.1527 16.3348C4.95659 16.5775 4.76052 16.8202 4.5784 17.0731C4.92602 17.5124 5.26179 17.9584 5.59801 18.405C5.72419 18.5726 5.8507 18.7407 5.97765 18.9081C6.06445 19.0226 6.15383 19.1365 6.24341 19.2507C6.43153 19.4905 6.89354 20.4084 7.06168 20.6583C7.20672 20.8081 7.34404 20.9669 7.48118 21.1254C7.55797 21.2142 7.6347 21.3029 7.71269 21.3899C7.77929 21.4643 7.84817 21.538 7.91724 21.6119C8.04989 21.7538 8.18326 21.8965 8.3027 22.046ZM27.0921 4.93576C27.1095 5.13192 27.1201 5.32463 27.1202 5.52164C27.1669 5.97297 27.1418 6.4432 27.1174 6.90029C27.1134 6.97534 27.1094 7.05004 27.1058 7.12425C27.0221 8.82582 26.798 10.4691 26.2963 12.1024C26.1371 12.6206 25.9591 13.1493 25.7175 13.6356C25.5575 13.4563 25.4041 13.2721 25.2506 13.0878C25.0742 12.876 24.8977 12.6642 24.7112 12.4598C24.9905 12.2584 25.2682 12.0549 25.5443 11.8492C25.1658 11.9317 24.6899 11.9714 24.3018 11.9317C24.2854 11.9157 24.2689 11.8998 24.2525 11.8839C24.203 11.836 24.1534 11.7881 24.1062 11.7381C24.5903 11.3235 25.1293 10.9466 25.6547 10.586C25.3092 10.6973 24.9622 10.7995 24.6151 10.9017C24.3986 10.9654 24.1821 11.0292 23.9659 11.0952C24.2554 10.7636 24.5898 10.4553 24.9221 10.1675C24.9766 10.1203 25.033 10.0743 25.0894 10.0283C25.192 9.94471 25.295 9.86082 25.3877 9.76864C24.8243 10.0481 24.2532 10.3077 23.6608 10.5204C23.8109 10.3808 23.9492 10.2256 24.0867 10.0713C24.1335 10.0188 24.1802 9.96646 24.2272 9.91484C24.49 9.62635 24.7448 9.33079 24.9996 9.03525C25.2838 8.70561 25.568 8.376 25.8632 8.05628C25.6345 8.19737 25.4238 8.40205 25.222 8.59816C25.1579 8.66047 25.0946 8.72191 25.032 8.78017L24.9834 8.82542C24.2687 9.4901 23.6482 10.0673 23.0202 10.8355C23.6652 9.36648 24.7072 7.89908 25.6783 6.6179C25.7146 6.57 25.7535 6.51374 25.7944 6.45465C25.9011 6.30022 26.0212 6.12652 26.1434 6.03258C26.3831 5.69634 26.6747 5.38364 26.9586 5.07919C27.0034 5.0312 27.048 4.98341 27.0921 4.93576ZM5.87569 10.6572C5.51065 9.20297 5.31611 7.62828 5.38141 6.12827C5.39629 5.78729 5.43462 5.44676 5.47284 5.10725L5.47293 5.10648C5.47991 5.04442 5.48689 4.9824 5.49373 4.92042C5.63003 4.97684 5.79735 5.19336 5.92182 5.35443C5.95523 5.39766 5.98556 5.4369 6.01136 5.46797C7.10302 6.78209 8.07248 8.18423 8.99356 9.62145C9.06832 9.73813 9.14917 9.85686 9.23097 9.97697C9.41289 10.2441 9.59948 10.5181 9.73412 10.7916C9.15813 10.1519 8.50751 9.54128 7.85995 8.97475C7.80868 8.92991 7.75792 8.88367 7.707 8.83728C7.58134 8.72281 7.45475 8.6075 7.31743 8.5104C7.36474 8.62065 7.66979 8.94143 7.90102 9.18459C7.99852 9.28712 8.08289 9.37584 8.1293 9.42918C8.44489 9.79204 8.76488 10.1632 9.03801 10.5598C8.42431 10.3362 7.92351 10.0346 7.39566 9.71667C7.23886 9.62223 7.07966 9.52636 6.91441 9.43067C7.04975 9.59694 7.21449 9.73961 7.38106 9.87345C7.43042 9.91675 7.54671 10.013 7.69097 10.1324C8.08069 10.4549 8.67458 10.9464 8.70469 11.0197C8.70198 11.0252 8.69981 11.0301 8.69784 11.0346C8.68992 11.0526 8.68518 11.0633 8.66126 11.075C8.44741 11.1793 7.22962 10.7437 6.95094 10.6409C7.19222 10.8168 7.43986 10.9831 7.68749 11.1493C7.88615 11.2826 8.08482 11.416 8.28019 11.5543C8.23208 11.6291 8.18099 11.7021 8.12993 11.775L8.10031 11.8173L8.0868 11.8367C7.66584 11.9067 7.44002 11.8281 7.06057 11.6597C7.25331 11.8396 7.47912 11.9888 7.70078 12.1352C7.7462 12.1652 7.79168 12.1953 7.83642 12.2253C7.57437 12.4803 7.00878 13.3312 6.80572 13.6706C6.67017 13.311 6.55845 12.943 6.4468 12.5752C6.40599 12.4408 6.36519 12.3064 6.32325 12.1725C6.30529 12.1152 6.28728 12.0579 6.26926 12.0006C6.1293 11.5553 5.9894 11.1102 5.87569 10.6572ZM15.6172 23.6253C15.7729 23.558 15.9188 23.4752 16.0649 23.3894C16.1818 23.3709 17.7545 24.1475 17.9405 24.2694C17.9451 24.5431 17.8454 24.7204 17.6655 24.9204C17.4221 25.1908 16.9432 25.6865 16.6076 25.8146C16.4602 25.8709 16.303 25.8786 16.1472 25.8863L16.1155 25.8879C16 25.8828 15.8744 25.875 15.7614 25.8512C15.3241 25.7595 14.5769 25.12 14.3383 24.7516C14.2684 24.6437 14.2104 24.5125 14.2456 24.3821C14.3151 24.124 14.9827 23.8698 15.3883 23.7154C15.4822 23.6796 15.562 23.6492 15.6172 23.6253Z" fill="#58000E"/>
<path d="M6.80789 13.6706C6.62281 13.1796 6.48215 12.6729 6.32542 12.1725C6.16792 11.6697 6.0062 11.1685 5.87786 10.6572C5.51282 9.20296 5.31828 7.62827 5.38359 6.12827C5.40119 5.7247 5.45166 5.32176 5.4959 4.92041C5.66879 4.99198 5.89159 5.32112 6.01354 5.46797C7.1052 6.78209 8.07465 8.18423 8.99573 9.62145C9.23678 9.99761 9.73629 10.7916 9.73629 10.7916C9.73629 10.7916 7.78605 12.0356 6.80789 13.6706Z" fill="url(#paint0_linear_32_128)"/>
<path d="M27.1071 7.12349C27.1071 7.12349 26.7994 10.4684 26.2976 12.1017C26.1385 12.6198 25.9605 13.1485 25.7189 13.6348C25.3749 13.2494 25.1231 12.9026 24.7125 12.459C24.0906 11.7869 23.0215 10.8347 23.0215 10.8347L25.6796 6.61715C25.6796 6.61715 26.785 5.06354 26.9611 5.11579C27.1372 5.16804 27.1071 7.12349 27.1071 7.12349Z" fill="url(#paint1_linear_32_128)"/>
<path d="M13.2475 8.90163C13.1441 8.78607 12.9053 8.60977 12.9053 8.60977C12.9053 8.60977 14.6962 8.34283 16.0383 8.36398C18.5637 8.40379 19.4533 8.6622 19.4533 8.6622C19.4533 8.6622 19.2424 8.8651 19.1019 8.88884C18.8993 8.92302 18.6792 8.90648 18.4743 8.90533L17.4766 8.90073C16.3494 8.90265 15.2188 8.92827 14.092 8.92093C13.9257 8.88543 13.4258 8.88986 13.2475 8.90163Z" fill="#58000E"/>
<path d="M13.2222 8.91825C13.2476 8.90593 13.241 8.91437 13.2491 8.90073C14.858 8.65899 17.2256 8.70441 19.0665 8.97554C19.0711 8.9928 19.0717 9.01164 19.0801 9.02741C19.1336 9.12737 19.3369 9.26922 19.4254 9.35703C19.9918 9.91925 20.5657 10.4775 21.1191 11.0523C21.6244 11.5771 22.1181 12.1253 22.5986 12.673C23.5635 13.773 24.2716 14.8837 24.9388 16.179C25.1137 16.5185 25.306 16.8647 25.441 17.222C24.056 18.1604 22.6747 19.1787 21.2695 20.0707C20.8244 20.3533 20.3559 20.609 19.8947 20.8644C19.6459 21.0021 19.3673 21.1263 19.1412 21.2991C19.3968 21.2431 19.6676 21.1694 19.9277 21.2384C19.6255 21.3321 18.9158 21.5021 18.6855 21.6945C19.1821 21.583 19.6255 21.3548 20.1461 21.3137C20.1444 21.3237 20.1432 21.3338 20.141 21.3437C20.1318 21.3867 20.1377 21.3706 20.1156 21.4012C20.0919 21.4339 20.0919 21.4597 20.0873 21.4988C20.136 21.5898 20.1825 21.6807 20.2262 21.7743C19.7306 21.806 19.2043 21.8514 18.7317 22.0108C19.3916 21.9237 19.8423 21.8783 20.5142 21.8773C20.7019 21.877 20.9122 21.8635 21.0971 21.8959C20.8115 21.925 20.5033 21.9019 20.2151 21.9014C20.2133 21.9988 20.1857 22.4194 20.2221 22.4835C20.2638 22.557 21.1595 22.7027 21.2855 22.8714C21.2328 22.925 20.3049 22.4782 20.0901 22.5876C19.9529 22.6574 19.8288 22.8515 19.7132 22.9587C19.661 23.0068 19.6076 23.0534 19.553 23.0986C19.4983 23.1438 19.4426 23.1876 19.3856 23.2299C19.3287 23.2722 19.2707 23.313 19.2116 23.3523C19.1526 23.3915 19.0926 23.4292 19.0315 23.4653C18.9704 23.5014 18.9085 23.5359 18.8456 23.5687C18.7828 23.6016 18.7191 23.6327 18.6546 23.6622C18.5901 23.6917 18.5249 23.7195 18.4589 23.7456C18.393 23.7717 18.3264 23.796 18.2592 23.8186C17.8806 23.7117 16.7852 23.3247 16.5301 23.0663C16.3843 22.9185 16.4132 22.6052 16.4121 22.4112C16.7969 22.0057 17.2338 21.6107 17.5777 21.1713C17.6431 21.0877 17.711 20.9988 17.6931 20.8868C17.6916 20.8765 17.6895 20.8663 17.6869 20.8562C17.6843 20.8462 17.6812 20.8363 17.6776 20.8265C17.6739 20.8168 17.6698 20.8073 17.6652 20.7979C17.6606 20.7886 17.6555 20.7795 17.65 20.7707C17.6445 20.762 17.6385 20.7535 17.6321 20.7453C17.6256 20.7371 17.6188 20.7293 17.6116 20.7218C17.6043 20.7144 17.5967 20.7073 17.5888 20.7006C17.5808 20.6939 17.5725 20.6876 17.5639 20.6818C17.4013 20.5708 15.4789 20.6456 15.1377 20.6784C14.8465 20.7064 14.562 20.7579 14.276 20.8186C14.3656 21.0324 14.4745 21.2249 14.6395 21.3902C15.0236 21.7748 15.7957 22.0124 15.952 22.5851C15.9821 22.6954 15.9685 22.8082 15.9102 22.9067C15.7159 23.2353 14.4581 23.6818 14.0523 23.7867C13.4703 23.643 12.9079 23.2135 12.4777 22.8079C12.375 22.7111 12.281 22.5645 12.1688 22.4859C11.9973 22.3659 11.3762 22.8108 11.1647 22.8446L11.1551 22.8184C11.3212 22.6827 12.0764 22.422 12.1179 22.3709C12.1492 22.2491 11.9515 21.9656 11.8934 21.8458C11.6689 21.8419 10.6381 21.9352 10.5619 21.9165C10.7483 21.8032 11.5697 21.7732 11.8252 21.7642C11.7088 21.579 11.6183 21.3176 11.4641 21.1644C11.4144 21.1151 11.3516 21.084 11.2831 21.0706C11.143 21.0433 10.0801 21.0099 9.94085 21.031C9.92977 21.0326 9.91916 21.0365 9.90829 21.0393L9.89793 21.0076L9.87824 21.0227L9.87508 21.0078C10.0708 20.912 11.1472 20.9924 11.4545 20.9981C11.2745 20.6903 11.0192 20.3928 10.7856 20.1236C9.72347 18.8994 8.45444 17.9406 7.07617 17.1014C7.26257 16.6307 7.49001 16.1652 7.71823 15.7135C7.91716 15.3196 8.10714 14.9247 8.33548 14.5467C9.24539 13.0402 10.4629 11.7104 11.6832 10.4506C12.1739 9.94402 12.7477 9.44812 13.2103 8.93181L13.2222 8.91825ZM19.9066 13.6518C19.3341 14.1194 18.1844 15.5599 17.9231 16.2297C17.876 16.3505 17.853 16.4745 17.8393 16.6029C17.772 17.2362 17.8098 17.8706 17.8368 18.5049C17.8587 19.0195 17.8729 19.5336 17.9016 20.048C18.3328 19.0966 18.8431 18.2229 19.8753 17.8406C20.1525 17.7379 20.4561 17.7105 20.7407 17.6296C21.0353 17.5446 21.299 17.4322 21.5443 17.2454C21.9856 16.9094 22.3407 16.4103 22.7062 15.993C23.0602 15.5893 23.4274 15.1981 23.808 14.8194C22.4056 14.825 20.5769 15.1109 19.2518 15.5705C19.2593 15.4824 19.27 15.3947 19.2837 15.3074C19.2974 15.22 19.3142 15.1333 19.334 15.0471C19.3538 14.961 19.3765 14.8756 19.4023 14.791C19.428 14.7065 19.4567 14.6229 19.4883 14.5404C19.5571 14.3577 19.9028 13.7705 19.9066 13.6518ZM12.3549 13.6647C12.7926 14.3361 13.057 14.9891 13.2403 15.7686C12.8024 15.5958 12.3647 15.3994 11.9155 15.2586C10.7636 14.8973 9.3745 14.7509 8.17146 14.8393C8.48014 14.9503 8.81607 15.0581 9.07821 15.2609C9.37552 15.4908 9.53771 15.832 9.72317 16.1492C10.1015 16.7963 10.7272 17.334 11.4272 17.6063C11.7734 17.7493 12.1401 17.8585 12.4754 18.0246C13.1192 18.3435 13.6694 19.0122 13.9414 19.6687C14.0351 19.8949 14.1066 20.1355 14.1378 20.3788C14.49 19.2354 14.6692 18.1313 14.553 16.9322C14.5252 16.6449 14.501 16.337 14.3639 16.0775C14.2645 15.8894 14.1319 15.7151 14.0102 15.5408C13.6216 14.9839 13.215 14.4953 12.7395 14.0099C12.6329 13.9011 12.493 13.7283 12.3549 13.6647Z" fill="#290007"/>
<path d="M17.8999 20.0486C17.8712 19.5341 17.857 19.0201 17.8351 18.5054C17.8081 17.8712 17.7703 17.2367 17.8376 16.6035C17.8513 16.4751 17.8743 16.3511 17.9214 16.2303C18.1827 15.5604 19.3323 14.1199 19.9049 13.6523C19.9011 13.7711 19.5554 14.3583 19.4866 14.5409C19.455 14.6235 19.4263 14.707 19.4005 14.7916C19.3748 14.8762 19.352 14.9615 19.3323 15.0477C19.3124 15.1339 19.2957 15.2206 19.282 15.3079C19.2683 15.3953 19.2576 15.483 19.25 15.5711C20.5752 15.1115 22.4038 14.8256 23.8063 14.82C23.4257 15.1987 23.0585 15.5899 22.7045 15.9936C22.339 16.4108 21.9839 16.91 21.5426 17.246C21.2973 17.4328 21.0335 17.5452 20.739 17.6301C20.4544 17.7111 20.1508 17.7384 19.8735 17.8412C18.8414 18.2235 18.3311 19.0971 17.8999 20.0486ZM21.9568 15.5765C21.4869 15.7173 20.9753 15.8159 20.5316 16.0257L20.5361 16.3854C20.5302 16.5862 20.4391 16.7687 20.3619 16.9503C20.1587 16.8243 20.0588 16.6211 19.9581 16.4137C19.5018 16.731 19.1792 17.1633 18.8194 17.5784C18.9729 17.5717 19.126 17.5596 19.2787 17.5422C19.4314 17.5248 19.5833 17.502 19.7343 17.4739C19.8854 17.4458 20.0353 17.4124 20.1841 17.3737C20.3328 17.3351 20.48 17.2913 20.6257 17.2423C21.3704 16.9966 21.6392 16.6897 21.9895 15.9956C22.1045 15.83 22.1946 15.6354 22.2919 15.4582C22.1779 15.4938 22.0671 15.5304 21.9568 15.5765Z" fill="#58000E"/>
<path d="M13.2408 15.7692C13.0574 14.9897 12.793 14.3367 12.3553 13.6653C12.4934 13.7289 12.6334 13.9017 12.74 14.0105C13.2154 14.4959 13.622 14.9844 14.0107 15.5413C14.1323 15.7157 14.2649 15.89 14.3643 16.0781C14.5014 16.3375 14.5256 16.6454 14.5534 16.9327C14.6696 18.1319 14.4904 19.236 14.1382 20.3794C14.107 20.1361 14.0355 19.8955 13.9418 19.6692C13.6699 19.0127 13.1196 18.344 12.4758 18.0252C12.1405 17.8591 11.7738 17.7499 11.4276 17.6069C10.7276 17.3345 10.102 16.7969 9.72359 16.1497C9.53813 15.8325 9.37594 15.4913 9.07863 15.2614C8.81649 15.0587 8.48056 14.9508 8.17188 14.8399C9.37492 14.7514 10.764 14.8979 11.9159 15.2591C12.3651 15.3999 12.8028 15.5963 13.2408 15.7692ZM10.4067 15.599C10.1958 15.5254 9.98174 15.4624 9.76463 15.4098C10.0861 15.571 10.2064 15.7574 10.3717 16.0635C10.528 16.353 10.698 16.6287 10.9428 16.8527C11.6091 17.4624 12.7332 17.5004 13.5882 17.5918C13.1758 17.1246 12.7941 16.6812 12.2489 16.36C12.1241 16.5721 11.9807 16.786 11.9542 17.0359C11.8787 16.8202 11.8083 16.6029 11.7429 16.3839L11.7157 16.0793C11.308 15.8629 10.848 15.7294 10.4067 15.599Z" fill="#58000E"/>
<path d="M9.84643 14.8703C10.9077 15.1648 11.5083 15.5156 11.6584 15.6245C11.6868 15.6278 11.673 16.145 11.7033 16.1447C11.7942 16.5002 11.8921 16.853 11.997 17.2031C12.0338 16.7975 12.2331 16.4502 12.4065 16.1059C13.1642 16.6272 13.6946 17.3472 14.2677 18.1056C13.0796 17.9573 11.5174 17.8956 10.5914 16.9058C10.2512 16.5421 10.015 16.0945 9.79774 15.6245C9.56808 15.1276 9.4008 14.825 8.9541 14.5632C9.25581 14.6486 9.55325 14.751 9.84643 14.8703Z" fill="#F97E5C"/>
<path d="M21.9572 15.5762C22.0675 15.5302 22.1784 15.4936 22.2923 15.458C22.195 15.6352 22.105 15.8298 21.99 15.9954C21.9912 15.9386 22.0034 15.9039 22.0267 15.8536L22.0349 15.8361L22.0134 15.8269L22.0565 15.7947C22.0308 15.7545 22.0339 15.7514 21.9884 15.7277L21.9031 15.7689L21.8623 15.7526C21.8995 15.7302 21.9369 15.711 21.9629 15.6751C21.9841 15.6457 21.9642 15.6095 21.9572 15.5762Z" fill="#F97E5C"/>
<path d="M20.4813 15.465C21.1418 15.1043 21.9674 14.9239 22.6278 14.7436L23.1231 14.5632L22.6544 15.4635C22.119 16.6221 21.7082 17.1344 20.57 17.5446C20.3474 17.6263 20.1224 17.6995 19.8951 17.764C19.6678 17.8285 19.4387 17.8842 19.2078 17.9311C18.977 17.9781 18.7449 18.0161 18.5115 18.0452C18.2782 18.0743 18.0442 18.0945 17.8096 18.1056C18.3594 17.4127 18.8524 16.6911 19.5498 16.1614C19.7038 16.5077 19.8563 16.8468 20.1669 17.0572C20.285 16.7541 20.4722 15.8002 20.4813 15.465Z" fill="#F97E5C"/>
<path d="M19.9268 21.2391C20.8183 21.0609 21.7791 20.9492 22.6867 21.0501C22.8029 21.0631 22.9319 21.0678 23.0441 21.0995C22.8986 21.1015 22.7584 21.0755 22.614 21.0649C22.4242 21.0509 22.2294 21.0529 22.0391 21.0569C21.4005 21.0702 20.7716 21.2014 20.1452 21.3144C19.6246 21.3555 19.1811 21.5837 18.6846 21.6952C18.9149 21.5027 19.6246 21.3327 19.9268 21.2391Z" fill="#F97E5C"/>
<path d="M18.7305 22.0114C19.2031 21.8521 19.7294 21.8066 20.2249 21.7749C20.8641 21.7875 21.4783 21.8251 22.1043 21.9648C22.1875 21.9834 22.3107 21.9925 22.3756 22.0488C22.3608 22.0641 22.3424 22.0627 22.3219 22.0669L22.374 22.0375L22.3248 22.0701C22.3188 22.0665 22.3129 22.0628 22.3068 22.0593C22.0527 21.9132 21.3943 21.8965 21.0959 21.8966C20.911 21.8642 20.7007 21.8776 20.513 21.8779C19.8411 21.8789 19.3904 21.9244 18.7305 22.0114Z" fill="#F97E5C"/>
<path d="M16.1168 25.8878C16.0013 25.8827 15.8757 25.8749 15.7627 25.8511C15.3255 25.7594 14.5782 25.1199 14.3396 24.7515C14.2697 24.6436 14.2118 24.5124 14.2469 24.382C14.3325 24.0642 15.3252 23.7522 15.6185 23.6252C15.7742 23.5578 15.9201 23.475 16.0662 23.3892C16.1831 23.3708 17.7558 24.1474 17.9419 24.2693C17.9464 24.5429 17.8468 24.7202 17.6668 24.9203C17.4235 25.1907 16.9446 25.6863 16.6089 25.8145C16.4516 25.8746 16.2829 25.8793 16.1168 25.8878Z" fill="#290007"/>
</g>
<defs>
<linearGradient id="paint0_linear_32_128" x1="7.55369" y1="4.92041" x2="7.55369" y2="13.6706" gradientUnits="userSpaceOnUse">
<stop stop-color="#960807"/>
<stop offset="1" stop-color="#3E0200"/>
</linearGradient>
<linearGradient id="paint1_linear_32_128" x1="24.5092" y1="13.3598" x2="25.7049" y2="5.7504" gradientUnits="userSpaceOnUse">
<stop stop-color="#3E0200"/>
<stop offset="1" stop-color="#9A0807"/>
</linearGradient>
<clipPath id="clip0_32_128">
<rect width="32" height="32" fill="white"/>
</clipPath>
</defs>
</svg>
