
<svg width="38" height="44" viewBox="0 0 38 44" fill="none" xmlns="http://www.w3.org/2000/svg">
<path fill-rule="evenodd" clip-rule="evenodd" d="M37.6388 10.9748C37.6388 10.9748 35.8833 9.94187 35.2505 9.57482L31.3267 7.30778L27.1543 9.72149L31.4083 12.1546L27.8744 14.1961L29.671 15.2354H29.6954V15.2495L29.703 15.2539L29.6954 15.2669V17.9494L33.4852 15.7538V21.4011L37.6388 18.9982V13.6942C37.6376 12.9634 37.6388 10.9748 37.6388 10.9748ZM37.6388 23.7088L33.4852 26.1117V30.1793L30.4728 31.9176V36.7047L35.2505 33.9373C35.886 33.5809 37.6388 32.4069 37.6388 32.4069C37.6388 32.4069 37.6328 30.5481 37.6388 29.8179V23.7088ZM26.5446 38.9802V34.1844L21.0242 37.37V32.4296L19.0285 33.5841L18.9941 33.6437L18.9597 33.6238L18.9254 33.6437L18.891 33.5841L16.9283 32.4487L16.9528 37.4404L11.7809 34.4442V39.241L16.5797 42.0095C17.2076 42.3838 18.9473 43.177 18.9473 43.177C18.9473 43.177 20.684 42.3763 21.3149 42.0095L26.5446 38.9802ZM7.89585 36.9997V32.1935L4.50066 30.2266L4.4976 25.2427L0.255859 22.7888V29.8387C0.257147 30.5696 0.255859 32.688 0.255859 32.688C0.255859 32.688 2.00141 33.584 2.62345 33.9581L7.89585 36.9997ZM0.255859 17.9753L4.49465 20.4274L4.49182 15.8144L8.24112 18.008V15.6246H8.24779L8.2414 15.6135L10.3562 14.3901L6.48635 12.1546L10.9894 9.57903L6.81804 7.16587L2.62345 9.59562C1.9941 9.96025 0.255859 10.9748 0.255859 10.9748C0.255859 10.9748 0.257147 12.9842 0.255859 13.715V17.9753ZM10.6869 4.92482L14.8828 7.35218L18.9473 5.02745L22.9319 7.30647L27.1255 4.88049L21.3149 1.52336C20.684 1.15667 18.9473 0.226318 18.9473 0.226318C18.9473 0.226318 17.1899 1.15667 16.559 1.52336L10.6869 4.92482ZM15.3239 17.2599L12.5147 18.8851V20.5084L16.8823 23.0638L16.9001 26.6887L18.9597 27.8802L21.0242 26.6859V22.9731L26.0262 20.0752V17.7316L23.8917 16.4968L18.9473 19.3531L15.3239 17.2599Z" fill="white"/>
<path d="M14.7447 14.3868L14.7657 14.3757C14.7657 14.3757 20.4161 16.3013 23.858 14.2673C25.0159 13.583 25.508 12.1683 24.2167 11.0706C23.0572 10.3324 20.8236 10.4899 20.0441 10.9019C20.8236 10.4899 20.7653 9.6528 19.9986 9.16465C18.8392 8.42646 16.9088 8.35143 15.687 8.99706C13.4536 10.1772 14.7447 14.3868 14.7447 14.3868Z" fill="#FF7F00"/>
<path d="M11.3514 30.7369L11.3514 30.7151C11.3514 30.7151 6.94653 27.2027 7.10645 23.4554C7.15916 22.2204 8.30362 21.356 9.39357 21.9845C10.4835 22.613 11.3643 24.4752 11.3626 25.2824C11.3643 24.4752 12.2507 23.632 13.3406 24.2604C14.4305 24.8889 14.9996 26.3451 14.9256 27.5665C14.7767 30.0264 11.3514 30.7369 11.3514 30.7369Z" fill="#FF7F00"/>
<path d="M27.4766 30.9426L27.4766 30.9191C27.4766 30.9191 31.9049 27.4183 31.9049 23.2311C31.905 22.4856 30.7718 20.8003 29.5933 21.4797C28.4149 22.1592 27.4626 24.1726 27.4644 25.0454C27.4626 24.1726 26.5043 23.2609 25.3259 23.9404C24.1475 24.6199 23.4127 26.2735 23.4155 27.6414C23.4207 30.1418 27.4766 30.9426 27.4766 30.9426Z" fill="#FF7F00"/>
</svg>
