<svg width="38" height="44" viewBox="0 0 38 44" fill="none" xmlns="http://www.w3.org/2000/svg">
<path fill-rule="evenodd" clip-rule="evenodd" d="M37.6383 10.9747C37.6383 10.9747 35.8828 9.94175 35.25 9.57469L31.3262 7.30766L27.1538 9.72137L31.4078 12.1545L27.8743 14.1958L29.671 15.2352H29.6954V15.2493L29.7029 15.2537L29.6954 15.2667V17.949L33.4847 15.7537V21.4012L37.6383 18.9983V13.694C37.6371 12.9633 37.6383 10.9747 37.6383 10.9747ZM37.6383 23.7089L33.4847 26.1118V30.1792L30.4725 31.9174V36.7045L35.25 33.9371C35.8855 33.5807 37.6383 32.4067 37.6383 32.4067C37.6383 32.4067 37.6323 30.548 37.6383 29.8178V23.7089ZM26.5442 38.98V34.1842L21.0237 37.3699V32.4295L19.0285 33.5837L18.9941 33.6435L18.9596 33.6236L18.9252 33.6435L18.8907 33.5837L16.9278 32.4482L16.9523 37.4403L11.7809 34.4444V39.2412L16.5793 42.0094C17.2071 42.3837 18.9468 43.1768 18.9468 43.1768C18.9468 43.1768 20.6835 42.3762 21.3144 42.0094L26.5442 38.98ZM7.89584 36.9999V32.1937L4.50017 30.2265L4.49711 25.2421L0.255371 22.7882V29.8386C0.256659 30.5694 0.255371 32.6879 0.255371 32.6879C0.255371 32.6879 2.00093 33.5839 2.62296 33.9579L7.89584 36.9999ZM0.255371 17.9747L4.49416 20.4268L4.49133 15.8142L8.24129 18.0083V15.6244H8.2476L8.24121 15.6133L10.3558 14.3901L6.48586 12.1545L10.9892 9.57879L6.81775 7.16563L2.62296 9.5955C1.99362 9.96012 0.255371 10.9747 0.255371 10.9747C0.255371 10.9747 0.256659 12.9841 0.255371 13.7149V17.9747ZM10.6866 4.92458L14.8825 7.35194L18.9468 5.02733L22.9315 7.30635L27.125 4.88037L21.3144 1.52324C20.6835 1.15655 18.9468 0.226196 18.9468 0.226196C18.9468 0.226196 17.1894 1.15655 16.5585 1.52324L10.6866 4.92458ZM15.3235 17.2598L12.5149 18.8847V20.5086L16.8818 23.0637L16.8996 26.6882L18.9596 27.8799L21.0237 26.6859V22.973L26.0262 20.0748V17.7314L23.8915 16.4965L18.9468 19.353L15.3235 17.2598Z" fill="white"/>
<path d="M13.4343 15.7585L13.4573 15.7451C13.4573 15.7451 21.4492 16.6943 23.8684 15.2881C25.2045 14.5114 25.2104 13.2557 23.8814 12.4832C22.5525 11.7107 20.0468 11.9149 19.1943 12.4104C20.0468 11.9149 20.398 10.4583 19.069 9.68589C17.7401 8.91343 15.5797 8.91682 14.2436 9.69345C11.8014 11.1131 13.4343 15.7585 13.4343 15.7585Z" fill="#FF7F00"/>
<path d="M10.4245 31.3954L10.4246 31.3705C10.4246 31.3705 5.92368 25.3324 5.92908 22.716C5.93206 21.2709 6.94362 20.6814 8.18847 21.3992C9.43332 22.117 10.4393 24.2438 10.4374 25.1658C10.4393 24.2438 11.4516 23.2808 12.6964 23.9985C13.9413 24.7163 14.948 26.4696 14.945 27.9147C14.9396 30.556 10.4245 31.3954 10.4245 31.3954Z" fill="#FF7F00"/>
<path d="M27.1066 31.2372L27.1065 31.2112C27.1065 31.2112 31.7937 24.9232 31.7881 22.1984C31.785 20.6936 30.7315 20.0797 29.4352 20.8272C28.1388 21.5747 27.0912 23.7895 27.0932 24.7497C27.0912 23.7895 26.037 22.7866 24.7406 23.5341C23.4442 24.2816 22.3958 26.1075 22.3989 27.6123C22.4046 30.363 27.1066 31.2372 27.1066 31.2372Z" fill="#FF7F00"/>
</svg>
