<svg width="65" height="66" viewBox="0 0 65 66" fill="none" xmlns="http://www.w3.org/2000/svg">
<rect x="1.31009" y="1.87503" width="62.6586" height="62.6586" rx="11.4917" stroke="white" stroke-width="1.89069"/>
<path d="M40.2403 33.0364C40.2403 34.7581 38.8445 36.1539 37.1228 36.1539C35.401 36.1539 34.0053 34.7581 34.0053 33.0364C34.0053 31.3146 35.401 29.9188 37.1228 29.9188C38.8445 29.9188 40.2403 31.3146 40.2403 33.0364Z" stroke="#B10622" stroke-width="2.14041"/>
<ellipse cx="28.9851" cy="24.7356" rx="4.1877" ry="4.18774" fill="#B10622"/>
<path d="M32.1026 24.7356C32.1026 26.4574 30.7068 27.8531 28.9851 27.8531C27.2633 27.8531 25.8676 26.4574 25.8676 24.7356C25.8676 23.0138 27.2633 21.6181 28.9851 21.6181C30.7068 21.6181 32.1026 23.0138 32.1026 24.7356Z" stroke="#B10622" stroke-width="2.14041"/>
<path d="M40.2407 24.6604C40.2407 26.3822 38.8449 27.7779 37.1232 27.7779C35.4014 27.7779 34.0057 26.3822 34.0057 24.6604C34.0057 22.9386 35.4014 21.5429 37.1232 21.5429C38.8449 21.5429 40.2407 22.9386 40.2407 24.6604ZM25.6303 24.6604C25.6303 22.9386 27.026 21.5429 28.7478 21.5429C30.4695 21.5429 31.8653 22.9386 31.8653 24.6604C31.8653 26.3822 30.4695 27.7779 28.7478 27.7779C27.026 27.7779 25.6303 26.3822 25.6303 24.6604Z" stroke="#B10622" stroke-width="2.14041"/>
<path d="M32.9355 33.0364C32.9355 35.3492 31.0606 37.2241 28.7478 37.2241C26.435 37.2241 24.5601 35.3492 24.5601 33.0364C24.5601 30.7235 26.435 28.8486 28.7478 28.8486C31.0606 28.8486 32.9355 30.7235 32.9355 33.0364Z" fill="#B10622"/>
<path d="M28.7478 28.8568H32.9355V37.2241H28.7478V28.8568Z" fill="#B10622"/>
<path fill-rule="evenodd" clip-rule="evenodd" d="M28.7478 45.5991C31.0606 45.5991 32.9355 43.7242 32.9355 41.4114C32.9355 41.3735 32.935 41.3358 32.934 41.2982H32.9354V37.2236H28.8608V37.2251C28.8233 37.2241 28.7856 37.2236 28.7478 37.2236C26.435 37.2236 24.5601 39.0985 24.5601 41.4114C24.5601 43.7242 26.435 45.5991 28.7478 45.5991Z" fill="#B10622"/>
<path d="M40.2403 24.6604C40.2403 26.3822 38.8445 27.7779 37.1228 27.7779C35.401 27.7779 34.0053 26.3822 34.0053 24.6604C34.0053 22.9386 35.401 21.5429 37.1228 21.5429C38.8445 21.5429 40.2403 22.9386 40.2403 24.6604Z" stroke="#B10622" stroke-width="2.14041"/>
</svg>
