<svg width="65" height="66" viewBox="0 0 65 66" fill="none" xmlns="http://www.w3.org/2000/svg">
<rect x="1.29928" y="1.89449" width="62.6607" height="62.6607" rx="8.49868" stroke="white" stroke-width="1.8886"/>
<rect x="32.4614" y="21.4238" width="17.7671" height="17.7671" transform="rotate(45 32.4614 21.4238)" fill="#B10622"/>
<path fill-rule="evenodd" clip-rule="evenodd" d="M35.993 33.5837C35.736 34.2144 35.8634 34.9651 36.3752 35.4769C37.0566 36.1583 38.1614 36.1583 38.8428 35.4769C39.5242 34.7955 39.5242 33.6907 38.8428 33.0093C38.3216 32.4881 37.5527 32.3655 36.915 32.6417L34.3735 30.1002C34.6496 29.4625 34.5271 28.6936 34.0059 28.1724C33.4847 27.6512 32.7158 27.5286 32.0781 27.8047L29.0658 24.7925L28.1338 25.7245L31.1561 28.7468C30.899 29.3775 31.0264 30.1282 31.5383 30.64C31.7175 30.8193 31.9261 30.9514 32.1486 31.0364L32.1422 37.6276C31.4999 37.8851 31.0463 38.5135 31.0463 39.2477C31.0463 40.2114 31.8275 40.9926 32.7912 40.9926C33.7549 40.9926 34.5361 40.2114 34.5361 39.2477C34.5361 38.5211 34.0919 37.8982 33.4603 37.6358L33.4667 31.0574L35.993 33.5837Z" fill="black"/>
</svg>
