<svg width="65" height="66" viewBox="0 0 65 66" fill="none" xmlns="http://www.w3.org/2000/svg">
<rect x="1.36471" y="1.89449" width="62.6607" height="62.6607" rx="10.3873" stroke="white" stroke-width="1.8886"/>
<path d="M23.852 37.6638L23.1853 37.5304C23.1853 37.5304 21.9962 39.5805 21.7183 40.831C21.3927 42.2961 21.9851 44.2983 21.9851 44.2983C21.9851 44.2983 22.8896 45.8912 24.2521 46.3653C27.1107 47.36 32.2201 44.0315 32.2201 44.0315C32.2201 44.0315 34.3647 43.0484 35.8541 42.7647C36.7272 42.5983 38.1212 42.4646 38.1212 42.4646C38.1212 42.4646 40.6216 42.1646 41.5884 40.2642C42.3971 38.6747 41.5884 37.1637 41.5884 37.1637C41.5884 37.1637 40.1827 37.9539 38.5546 37.3304C37.1543 36.7941 36.8543 35.0967 36.8543 35.0967H35.0873C35.0873 35.0967 34.6024 36.8911 33.5204 37.3304C32.8448 37.6047 31.6867 37.6638 31.6867 37.6638C31.6867 37.6638 30.4915 39.3611 29.3863 40.2642C28.2121 41.2237 25.9857 42.1646 25.9857 42.1646C25.9857 42.1646 24.5748 41.1847 24.0521 40.2642C23.4597 39.2211 23.852 37.6638 23.852 37.6638Z" fill="#B10622"/>
<circle cx="24.2177" cy="32.9926" r="1.76697" fill="#B10622"/>
<circle cx="32.1542" cy="32.9926" r="1.76697" fill="#B10622"/>
<circle cx="39.8212" cy="32.9926" r="1.76697" fill="#B10622"/>
<path d="M29.7202 21.4238H42.1223L39.0218 30.3254L35.8879 24.391L32.8207 30.3254L29.7202 21.4238Z" fill="#B10622"/>
</svg>
