<svg width="66" height="65" viewBox="0 0 66 65" fill="none" xmlns="http://www.w3.org/2000/svg">
<rect x="1.54488" y="0.944298" width="62.6607" height="62.6607" rx="10.3873" stroke="white" stroke-width="1.8886"/>
<rect x="20.6738" y="19.543" width="25.1265" height="25.1265" fill="#B10622"/>
<path d="M31.3341 31.0725H33.4552V39.8831C32.5578 42.0042 30.7144 42.2807 29.1314 41.841C27.663 41.4331 26.7656 39.8831 26.7656 39.8831L28.4788 38.9041C28.4788 38.9041 28.9683 39.8015 30.0288 39.8015C31.0893 39.8015 31.3341 38.9041 31.3341 38.9041V31.0725Z" fill="black"/>
<path d="M41.5315 32.7041L40.0631 33.683C40.0631 33.683 39.1657 32.8672 38.5131 32.8672C37.8605 32.8672 37.4341 33.2147 37.4526 34.0093C37.4785 35.1254 39.7159 35.6713 40.471 36.0488C40.471 36.0488 42.1949 36.9618 42.1026 39.312C42.0103 41.6623 39.7368 41.9389 38.7578 42.0042C37.7789 42.0694 37.0898 41.8609 36.2289 41.3515C35.4705 40.9028 34.7604 39.8831 34.7604 39.8831L36.4736 38.6594C36.4736 38.6594 37.3382 40.0598 38.2684 40.1278C39.012 40.1822 39.8836 40.0462 39.9815 39.312C40.1773 37.8436 38.5881 37.5294 37.942 37.191C36.3285 36.3074 34.6788 35.3146 35.5762 32.7041C35.9127 31.7251 36.8803 31.1015 38.0236 30.9909C40.5526 30.7462 41.5315 32.7041 41.5315 32.7041Z" fill="black"/>
</svg>
