<svg width="65" height="66" viewBox="0 0 65 66" fill="none" xmlns="http://www.w3.org/2000/svg">
<rect x="1.00141" y="1.88081" width="62.6881" height="62.6881" rx="10.2367" stroke="white" stroke-width="1.86122"/>
<path d="M32.3858 52.9121C33.9928 52.9121 35.2956 51.5414 35.2956 49.8506C35.2956 48.1598 33.9928 46.7891 32.3858 46.7891C30.7788 46.7891 29.4761 48.1598 29.4761 49.8506C29.4761 51.5414 30.7788 52.9121 32.3858 52.9121Z" fill="#B10622"/>
<path d="M32.3857 52.63C33.829 52.63 34.999 51.399 34.999 49.8804C34.999 48.3619 33.829 47.1309 32.3857 47.1309C30.9425 47.1309 29.7725 48.3619 29.7725 49.8804C29.7725 51.399 30.9425 52.63 32.3857 52.63Z" fill="black"/>
<path d="M33.1466 49.0046C33.302 49.1534 33.3866 49.3612 33.3866 49.6585C33.3866 49.9558 33.3017 50.164 33.1466 50.3125C32.9769 50.4463 32.7369 50.5207 32.3979 50.5207H32.1011V51.1893H31.5928V48.7964H32.3979C32.7369 48.7964 32.9912 48.8561 33.1466 49.0046ZM32.7794 49.9408C32.8358 49.8667 32.864 49.7626 32.864 49.6288C32.864 49.495 32.8216 49.3909 32.7512 49.3319C32.6662 49.2722 32.5533 49.2425 32.3839 49.2425H32.1011V50.0449H32.4404C32.6097 50.0449 32.7226 50.0152 32.7794 49.9408Z" fill="#B10622"/>
<path d="M39.3644 45.4538C34.6986 47.2345 29.5729 47.2345 24.9072 45.4538C24.4774 45.2935 24.1338 44.7682 24.1338 44.3141V43.1479C24.1338 42.6938 24.4774 42.4711 24.9073 42.6314C29.5731 44.4121 34.6988 44.4121 39.3645 42.6314C39.7941 42.4711 40.1379 42.6938 40.1379 43.1479V44.3141C40.1294 44.7682 39.7856 45.2935 39.3644 45.4538Z" fill="#B10622"/>
<path d="M39.3644 43.6021C34.6972 45.9805 29.5745 45.9805 24.9072 43.6021C24.4774 43.3882 24.1338 42.6868 24.1338 42.0793V40.5307C24.1338 39.9233 24.4774 39.6239 24.9073 39.8463C29.5745 42.2247 34.6972 42.2247 39.3645 39.8463C39.7941 39.6325 40.1379 39.9235 40.1379 40.5307V42.0793C40.1294 42.6866 39.7856 43.3882 39.3644 43.6021Z" fill="#B10622"/>
<path d="M45.4527 33.278C45.854 38.9235 39.9057 43.9921 32.1349 43.9837C24.3724 43.9919 18.4162 38.9233 18.8175 33.278C19.2188 27.6161 25.1994 22.9432 32.1511 22.9351C39.111 22.9432 45.0433 27.6161 45.4527 33.278Z" fill="#B10622"/>
<path d="M32.1472 21.5312C24.6238 21.5312 17.6377 27.1652 18.9604 35.7433C19.2251 36.5345 19.6633 38.591 21.755 40.4104C22.3832 40.9554 23.4662 41.4123 23.9788 41.0432C25.2934 40.0939 22.9619 37.3693 25.6242 34.8556H25.5663C27.013 33.6868 29.0635 32.7551 32.1307 32.7551C35.1979 32.7551 37.2484 33.6868 38.6951 34.8556H38.6372C41.2994 37.3693 38.9763 40.0939 40.2825 41.0432C40.7952 41.4123 41.8865 40.9554 42.5064 40.4104C44.5983 38.591 45.0446 36.5343 45.3093 35.7433C46.632 27.1563 39.6706 21.5312 32.1472 21.5312Z" fill="#B10622"/>
<path d="M39.1417 35.6514C37.7707 34.1807 35.1724 32.7568 32.1529 32.7568H32.1171C29.0885 32.7568 26.4904 34.1805 25.1283 35.6514C23.7127 37.1536 24.2236 37.7952 24.2236 39.2347C24.2236 44.4453 26.311 42.9275 27.7178 43.5533C29.1513 44.1635 30.6027 43.9446 32.1259 43.9446H32.1529C33.6761 43.9446 35.1275 44.1636 36.5611 43.5456C37.9588 42.9196 40.0555 44.4532 40.0555 39.2426C40.0464 37.8108 40.5573 37.1536 39.1417 35.6514Z" fill="black"/>
<path d="M23.1606 35.7373C24.3911 35.7373 25.3886 34.6877 25.3886 33.3931C25.3886 32.0984 24.3911 31.0488 23.1606 31.0488C21.9301 31.0488 20.9326 32.0984 20.9326 33.3931C20.9326 34.6877 21.9301 35.7373 23.1606 35.7373Z" fill="#B10622"/>
<path d="M23.3618 35.3418C24.5923 35.3418 25.5898 34.2922 25.5898 32.9976C25.5898 31.7029 24.5923 30.6533 23.3618 30.6533C22.1313 30.6533 21.1338 31.7029 21.1338 32.9976C21.1338 34.2922 22.1313 35.3418 23.3618 35.3418Z" fill="black"/>
<path d="M23.9265 32.5531C24.244 32.5531 24.5014 32.2823 24.5014 31.9482C24.5014 31.6141 24.244 31.3433 23.9265 31.3433C23.609 31.3433 23.3516 31.6141 23.3516 31.9482C23.3516 32.2823 23.609 32.5531 23.9265 32.5531Z" fill="#B10622"/>
<path d="M41.0498 35.7368C42.2803 35.7368 43.2778 34.6873 43.2778 33.3926C43.2778 32.0979 42.2803 31.0483 41.0498 31.0483C39.8193 31.0483 38.8218 32.0979 38.8218 33.3926C38.8218 34.6873 39.8193 35.7368 41.0498 35.7368Z" fill="#B10622"/>
<path d="M40.9223 35.3413C42.1528 35.3413 43.1504 34.2917 43.1504 32.9971C43.1504 31.7024 42.1528 30.6528 40.9223 30.6528C39.6918 30.6528 38.6943 31.7024 38.6943 32.9971C38.6943 34.2917 39.6918 35.3413 40.9223 35.3413Z" fill="black"/>
<path d="M41.49 32.5531C41.8075 32.5531 42.0649 32.2823 42.0649 31.9482C42.0649 31.6141 41.8075 31.3433 41.49 31.3433C41.1724 31.3433 40.915 31.6141 40.915 31.9482C40.915 32.2823 41.1724 32.5531 41.49 32.5531Z" fill="#B10622"/>
<path d="M27.413 24.6776C27.413 24.6776 19.8047 26.0278 19.4987 35.3797C19.4906 35.5206 19.3456 35.6117 19.2249 35.5372L18.9834 35.388L18.7983 32.9361L19.1443 27.9329L22.3167 25.5224L25.1668 24.3379L27.413 24.6776ZM36.8572 24.6776C36.8572 24.6776 44.4655 26.0278 44.7715 35.3797C44.7796 35.5206 44.9244 35.6117 45.0453 35.5372L45.2868 35.388L45.4719 32.9361L45.1257 27.9329L41.9535 25.5224L39.1034 24.3379L36.8572 24.6776Z" fill="#B10622"/>
<path d="M31.946 40.3971V36.2744H32.2502V40.3873C32.6985 40.4394 33.281 40.6972 33.8388 40.8635C34.4166 41.0662 34.9724 41.1459 34.753 41.1748C33.9924 41.2037 33.1586 40.9213 32.1346 40.9359C31.1034 40.9215 30.2695 41.2037 29.5162 41.1748C29.2969 41.1386 29.8527 41.0589 30.4304 40.8635C30.9594 40.7059 31.5048 40.466 31.946 40.3971ZM34.007 34.8846C34.2483 35.413 33.4146 36.2744 32.0907 36.2744C30.7669 36.2744 29.9333 35.4128 30.1745 34.8846C30.4086 34.3417 31.2496 34.168 32.0907 34.1606C32.9319 34.168 33.773 34.3417 34.007 34.8846Z" fill="#B10622"/>
<path d="M27.452 24.1559C27.452 24.1559 18.5657 25.3729 19.3321 34.1056C19.3721 34.5482 17.5596 32.2168 16.1544 31.5056C14.7492 30.7942 14.7971 28.4945 14.7971 28.4945C14.7971 28.4945 14.7731 24.4878 20.45 23.3023C26.1187 22.1247 27.452 24.1559 27.452 24.1559ZM36.8175 24.1559C36.8175 24.1559 45.7038 25.3729 44.9374 34.1056C44.8974 34.5482 46.7099 32.2168 48.1151 31.5056C49.5203 30.7942 49.4723 28.4945 49.4723 28.4945C49.4723 28.4945 49.4963 24.4878 43.8195 23.3023C38.1508 22.1247 36.8175 24.1559 36.8175 24.1559Z" fill="#B10622"/>
<path d="M32.1344 31.354C29.2173 31.354 26.2665 32.9184 26.882 32.7436C28.0202 32.4169 28.6777 31.8418 32.1345 31.8418C35.5912 31.8418 36.2403 32.4169 37.3871 32.7436C38.0024 32.9184 35.0514 31.354 32.1344 31.354Z" fill="#B10622"/>
<path d="M32.1492 29.5319C30.1682 29.5319 28.1719 31.5652 28.5862 31.3366C29.3621 30.9111 30.3564 30.1623 32.1494 30.1623C33.9423 30.1623 34.9367 30.9111 35.7125 31.3366C36.1269 31.5652 34.1303 29.5319 32.1492 29.5319ZM32.1343 22.9351C29.9496 22.9351 27.7349 24.2435 28.1943 24.0936C29.0533 23.8178 30.153 23.337 32.1343 23.337C34.1155 23.337 35.2154 23.8179 36.0741 24.0936C36.5337 24.2435 34.3263 22.9351 32.1343 22.9351Z" fill="#B10622"/>
</svg>
