<svg width="66" height="65" viewBox="0 0 66 65" fill="none" xmlns="http://www.w3.org/2000/svg">
<rect x="1.61324" y="0.944298" width="62.6607" height="62.6607" rx="10.3873" stroke="white" stroke-width="1.8886"/>
<circle cx="33.1154" cy="31.9953" r="2.55286" fill="#B10622" stroke="#B10622" stroke-width="0.0919042"/>
<path d="M47.6415 32.1054C47.6415 32.687 47.3514 33.3144 46.6708 33.9616C45.9884 34.6104 44.9618 35.2286 43.6325 35.7632C40.9778 36.8309 37.2598 37.5078 33.1156 37.5078C28.9714 37.5078 25.2534 36.8309 22.5987 35.7632C21.2694 35.2286 20.2428 34.6104 19.5604 33.9616C18.8798 33.3144 18.5897 32.687 18.5897 32.1054C18.5897 31.5238 18.8798 30.8963 19.5604 30.2492C20.2428 29.6004 21.2694 28.9822 22.5987 28.4476C25.2534 27.3799 28.9714 26.703 33.1156 26.703C37.2598 26.703 40.9778 27.3799 43.6325 28.4476C44.9618 28.9822 45.9884 29.6004 46.6708 30.2492C47.3514 30.8963 47.6415 31.5238 47.6415 32.1054Z" stroke="#B10622" stroke-width="1.47047"/>
<path d="M40.378 44.6854C39.8742 44.9762 39.1859 45.0387 38.2851 44.7729C37.382 44.5063 36.3334 43.9263 35.2057 43.0424C32.9537 41.2772 30.5085 38.3958 28.4364 34.8068C26.3643 31.2178 25.0916 27.6595 24.6888 24.8266C24.4871 23.4081 24.5092 22.2099 24.7299 21.2946C24.9501 20.3816 25.3484 19.8167 25.8521 19.5259C26.3558 19.235 27.0442 19.1725 27.945 19.4384C28.848 19.7049 29.8967 20.2849 31.0243 21.1688C33.2763 22.934 35.7215 25.8154 37.7936 29.4044C39.8657 32.9934 41.1385 36.5517 41.5412 39.3846C41.7429 40.8032 41.7209 42.0013 41.5001 42.9166C41.28 43.8297 40.8817 44.3946 40.378 44.6854Z" stroke="#B10622" stroke-width="1.47047"/>
<path d="M25.8517 44.6864C25.348 44.3956 24.9497 43.8307 24.7295 42.9177C24.5088 42.0024 24.4868 40.8042 24.6885 39.3857C25.0912 36.5528 26.364 32.9945 28.4361 29.4055C30.5082 25.8165 32.9534 22.9351 35.2054 21.1699C36.333 20.2859 37.3817 19.706 38.2847 19.4394C39.1855 19.1736 39.8739 19.2361 40.3776 19.5269C40.8813 19.8177 41.2796 20.3826 41.4998 21.2957C41.7205 22.211 41.7425 23.4091 41.5409 24.8277C41.1381 27.6606 39.8654 31.2189 37.7933 34.8079C35.7212 38.3969 33.276 41.2783 31.024 43.0435C29.8963 43.9274 28.8477 44.5074 27.9446 44.7739C27.0438 45.0398 26.3554 44.9773 25.8517 44.6864Z" stroke="#B10622" stroke-width="1.47047"/>
</svg>
