<svg width="65" height="65" viewBox="0 0 65 65" fill="none" xmlns="http://www.w3.org/2000/svg">
<rect x="0.938438" y="0.944298" width="62.6607" height="62.6607" rx="10.3873" stroke="white" stroke-width="1.8886"/>
<circle cx="28.3299" cy="37.5652" r="1.00169" fill="#B10622" stroke="#B10622" stroke-width="1.58213"/>
<circle cx="31.3372" cy="28.9872" r="1.00169" transform="rotate(120 31.3372 28.9872)" fill="#B10622" stroke="#B10622" stroke-width="1.58213"/>
<circle cx="37.7958" cy="35.5901" r="1.00169" transform="rotate(-120 37.7958 35.5901)" fill="#B10622" stroke="#B10622" stroke-width="1.58213"/>
<path d="M28.2354 37.6701C26.3001 35.8902 25.0273 32.873 25.0273 29.4503C25.0273 23.9786 28.2802 19.543 32.2927 19.543C35.584 19.543 38.3641 22.5272 39.2572 26.6196" stroke="#B10622" stroke-width="1.58213"/>
<path d="M31.1046 28.8524C33.6137 28.0663 36.8631 28.4727 39.8272 30.184C44.5658 32.9199 46.7808 37.9547 44.7745 41.4297C43.1289 44.28 39.1544 45.1955 35.1637 43.9228" stroke="#B10622" stroke-width="1.58213"/>
<path d="M37.9343 35.6191C37.3606 38.1851 35.384 40.7959 32.4198 42.5073C27.6812 45.2431 22.2134 44.6439 20.2072 41.1689C18.5615 38.3186 19.7559 34.4189 22.8535 31.5992" stroke="#B10622" stroke-width="1.58213"/>
</svg>
