<svg width="65" height="65" viewBox="0 0 65 65" fill="none" xmlns="http://www.w3.org/2000/svg">
<rect x="1.12984" y="0.944296" width="62.6607" height="62.6607" rx="10.3873" stroke="white" stroke-width="1.88859"/>
<path fill-rule="evenodd" clip-rule="evenodd" d="M36.2869 29.1796C31.3818 31.1223 29.5655 28.7273 29.5655 28.7273C30.0877 31.5702 34.9167 31.5056 37.2006 30.4718C40.0911 29.1634 44.2906 25.3674 42.4864 21.8783C41.1499 19.2938 35.6999 18.8415 31.6538 20.5861C28.0516 22.1393 23.275 24.5921 21.8654 28.4689C20.7897 31.4272 24.2057 33.7083 26.4355 35.1973C27.1277 35.6595 27.7056 36.0454 27.9993 36.3516C28.0678 36.423 28.133 36.496 28.1948 36.5707C26.5263 37.2852 24.9624 38.4078 23.8229 39.776C22.8758 40.9133 22.1364 42.7935 23.3009 43.9112C24.869 45.4164 27.825 44.4281 28.9129 43.1358C30.2193 41.5841 30.9805 40.2036 30.4138 37.773C30.3651 37.564 30.2983 37.3647 30.2159 37.1739C30.3686 37.1314 30.5217 37.094 30.6748 37.0623C32.9871 36.5831 35.5038 37.2561 35.9606 38.936C36.4174 40.616 34.9165 41.5205 34.9165 41.5205C34.9165 41.5205 35.8954 41.7987 36.7437 40.4221C37.4615 37.9669 35.9606 36.1415 32.8936 35.7701C31.8286 35.6411 30.6757 35.7653 29.5318 36.0932C28.926 35.3746 28.1118 34.7733 27.3078 34.1795C25.7336 33.017 24.1988 31.8835 24.345 29.9549C24.5213 27.6289 27.0679 25.2445 30.8054 23.4291C34.2639 21.7492 37.5098 21.1249 39.7455 22.1369C42.5393 23.4014 40.398 27.5514 36.2869 29.1796ZM24.8018 41.8436C25.0209 40.4873 26.7531 38.7015 28.8318 37.7005C29.1698 38.6984 29.0458 39.8578 28.3909 41.0682C27.412 42.8774 24.5199 43.5881 24.8018 41.8436Z" fill="#B10622"/>
</svg>
