<svg width="66" height="66" viewBox="0 0 66 66" fill="none" xmlns="http://www.w3.org/2000/svg">
<rect x="1.58492" y="1.92281" width="62.6607" height="62.6607" rx="10.3873" stroke="white" stroke-width="1.8886"/>
<path d="M30.6201 32.1746H33.5795V44.4673C32.3274 47.4267 29.7555 47.8126 27.5469 47.1991C25.4981 46.63 24.2461 44.4673 24.2461 44.4673L26.6363 43.1015C26.6363 43.1015 27.3193 44.3535 28.799 44.3535C30.2786 44.3535 30.6201 43.1015 30.6201 43.1015V32.1746Z" fill="black"/>
<path d="M44.8478 34.451L42.799 35.8169C42.799 35.8169 41.547 34.6787 40.6364 34.6787C39.7258 34.6787 39.1309 35.1635 39.1567 36.2722C39.1929 37.8293 42.3146 38.591 43.3681 39.1177C43.3681 39.1177 45.7733 40.3915 45.6446 43.6706C45.5158 46.9497 42.3437 47.3356 40.9779 47.4267C39.612 47.5178 38.6507 47.2268 37.4494 46.5161C36.3913 45.8901 35.4006 44.4673 35.4006 44.4673L37.7909 42.76C37.7909 42.76 38.9972 44.7139 40.2949 44.8088C41.3326 44.8847 42.5486 44.695 42.6852 43.6706C42.9584 41.6218 40.7411 41.1834 39.8396 40.7112C37.5884 39.4784 35.2868 38.0933 36.5388 34.451C37.0083 33.0852 38.3583 32.2152 39.9535 32.0608C43.4819 31.7193 44.8478 34.451 44.8478 34.451Z" fill="black"/>
<rect x="20.1836" y="20.5215" width="25.1265" height="25.1265" fill="#B10622"/>
<path d="M25.8281 31.9694H33.9962L33.9962 33.9958H25.8281L25.8281 31.9694Z" fill="black"/>
<path d="M31.0142 32.051V42.9827H28.8931V32.051H31.0142Z" fill="black"/>
<path d="M39.5727 34.6615L41.0411 33.6826C41.0411 33.6826 40.0622 31.7247 37.5332 31.9694C36.3899 32.0801 35.4223 32.7036 35.0858 33.6826C34.1884 36.2931 35.8381 37.2859 37.4516 38.1695C38.0977 38.5079 39.6869 38.8221 39.4911 40.2905C39.3932 41.0247 38.5216 41.1607 37.7779 41.1063C36.8478 41.0383 35.9832 39.6379 35.9832 39.6379L34.27 40.8616C34.27 40.8616 34.9801 41.8813 35.7385 42.33C36.5994 42.8394 37.2885 43.0479 38.2674 42.9827C39.2464 42.9174 41.5199 42.6408 41.6122 40.2905C41.7045 37.9403 39.9806 37.0274 39.9806 37.0274C39.2255 36.6498 36.9881 36.1039 36.9622 34.9879C36.9437 34.1932 37.3701 33.8457 38.0227 33.8457C38.6753 33.8457 39.5727 34.6615 39.5727 34.6615Z" fill="black"/>
</svg>
