<svg width="66" height="66" viewBox="0 0 66 66" fill="none" xmlns="http://www.w3.org/2000/svg">
<rect x="1.8682" y="1.87503" width="62.6586" height="62.6586" rx="10.638" stroke="white" stroke-width="1.89069"/>
<rect x="19.6133" y="21.0156" width="30.4064" height="23.658" stroke="#B10622" stroke-width="1.08594"/>
<rect x="19.0703" y="20.4727" width="31.4923" height="7.49817" fill="#B10622"/>
<ellipse cx="42.6882" cy="23.9214" rx="1.12473" ry="1.19971" fill="black"/>
<ellipse cx="46.8894" cy="23.9214" rx="1.12473" ry="1.19971" fill="black"/>
<path d="M30.4671 39.2776L27.3322 33.8479H33.6019L30.4671 39.2776ZM37.7275 31.3633H32.8967V30.2773H37.7275V31.3633ZM31.01 33.2499V34.3908H29.9241V33.2499H31.01ZM32.8967 31.3633C31.8547 31.3633 31.01 32.208 31.01 33.2499H29.9241C29.9241 31.6082 31.255 30.2773 32.8967 30.2773V31.3633Z" fill="#B10622"/>
<path d="M39.1052 32.199L42.24 37.6287L35.9704 37.6287L39.1052 32.199ZM31.8447 40.1133L36.6756 40.1133L36.6756 41.1992L31.8447 41.1992L31.8447 40.1133ZM38.5622 38.2267L38.5622 37.0857L39.6482 37.0857L39.6482 38.2267L38.5622 38.2267ZM36.6756 40.1133C37.7176 40.1133 38.5622 39.2686 38.5622 38.2267L39.6482 38.2267C39.6482 39.8684 38.3173 41.1992 36.6756 41.1992L36.6756 40.1133Z" fill="#B10622"/>
</svg>
