<svg width="65" height="66" viewBox="0 0 65 66" fill="none" xmlns="http://www.w3.org/2000/svg">
<rect x="1.10201" y="1.89449" width="62.6607" height="62.6607" rx="10.3873" stroke="white" stroke-width="1.8886"/>
<path d="M31.6783 21.4238L42.5222 27.7055V40.2687L31.6783 46.5504L20.8343 40.2687V27.7055L31.6783 21.4238Z" fill="#0B0D05"/>
<path fill-rule="evenodd" clip-rule="evenodd" d="M22.9105 27.8376L30.8375 23.2609V27.31L26.4171 29.8621L22.9105 27.8376ZM25.5985 31.4067L21.9951 29.3262V38.5943L25.5985 36.5139V31.4067ZM26.6603 37.918L22.8827 40.099L30.8375 44.6917V40.3297L26.6603 37.918ZM32.5844 40.242V44.6933L40.5981 40.0667L36.7431 37.841L32.5844 40.242ZM37.6715 36.3598L41.4296 38.5296V29.391L37.6715 31.5607V36.3598ZM36.9864 29.9391L40.5703 27.8699L32.5844 23.2593V27.3977L36.9864 29.9391Z" fill="#B10622"/>
<path fill-rule="evenodd" clip-rule="evenodd" d="M35.4187 30.8459L31.6785 28.6865L28.0307 30.7926L31.7709 32.952L35.4187 30.8459ZM27.124 32.2863V36.5751L30.8452 38.7235V34.4347L27.124 32.2863ZM32.5982 38.6736L36.233 36.5751V32.393L32.5982 34.4915V38.6736Z" fill="#B10622"/>
</svg>
