<svg width="65" height="66" viewBox="0 0 65 66" fill="none" xmlns="http://www.w3.org/2000/svg">
<rect x="1.36576" y="1.87503" width="62.6586" height="62.6586" rx="10.0601" stroke="white" stroke-width="1.89069"/>
<path d="M35.2415 23.5839C35.2415 24.9198 34.1586 26.0027 32.8227 26.0027C31.4869 26.0027 30.4039 24.9198 30.4039 23.5839C30.4039 22.2481 31.4869 21.1652 32.8227 21.1652C34.1586 21.1652 35.2415 22.2481 35.2415 23.5839Z" fill="black" stroke="#B10622" stroke-width="1.38502"/>
<path d="M19.4048 37.3903L21.9327 34.668H43.5174L46.2397 37.3903M20.9604 46.5297L23.6828 44.1962V37.9737H41.7673V44.1962L44.1007 46.5297" stroke="#B10622" stroke-width="1.38502"/>
<path d="M39.1301 34.0843C39.1301 36.8253 38.697 39.2059 37.6969 40.879C36.7282 42.4995 35.2039 43.5034 32.8222 43.5034C30.4405 43.5034 28.9162 42.4995 27.9475 40.879C26.9474 39.2059 26.5143 36.8253 26.5143 34.0843C26.5143 31.3209 26.8563 28.945 27.8086 27.2778C28.277 26.4577 28.8898 25.815 29.6858 25.3726C30.4842 24.9288 31.5059 24.6652 32.8222 24.6652C34.1385 24.6652 35.1602 24.9288 35.9586 25.3726C36.7546 25.815 37.3674 26.4577 37.8358 27.2778C38.7881 28.945 39.1301 31.3209 39.1301 34.0843Z" fill="black" stroke="#B10622" stroke-width="1.38502"/>
<path d="M32.7255 31.7511H23.8778V27.0842L21.7388 25.1396M32.7255 31.7511H41.5733V27.0842L43.9068 25.1396M32.7255 31.7511V44.1962" stroke="#B10622" stroke-width="1.38502"/>
</svg>
