<svg width="53" height="54" viewBox="0 0 53 54" fill="none" xmlns="http://www.w3.org/2000/svg">
<path fill-rule="evenodd" clip-rule="evenodd" d="M26.9535 54C41.3078 54 52.9442 41.9117 52.9442 27C52.9442 12.0883 41.3078 0 26.9535 0C12.5993 0 0.962891 12.0883 0.962891 27C0.962891 41.9117 12.5993 54 26.9535 54ZM49.5075 27.2231C49.5075 40.0397 39.5059 50.4297 27.1684 50.4297C14.8309 50.4297 4.82934 40.0397 4.82934 27.2231C4.82934 14.4064 14.8309 4.01648 27.1684 4.01648C39.5059 4.01648 49.5075 14.4064 49.5075 27.2231ZM43.5419 37.0413L43.5269 37.0404C43.4871 37.0379 43.4259 37.0339 43.3453 37.0279C43.184 37.0159 42.9456 36.9964 42.6468 36.9663C42.048 36.9061 41.2135 36.8044 40.2756 36.6396C38.3493 36.3012 36.1847 35.7286 34.6893 34.8276C33.6869 34.2237 32.381 33.1868 31.2747 32.2476L31.1427 32.1352C32.3265 31.2009 33.823 29.7393 35.2491 27.556C37.4952 24.1175 38.3102 20.516 38.5711 17.8057C38.7019 16.4465 38.6951 15.2952 38.6545 14.4752C38.6342 14.0646 38.6053 13.7351 38.5806 13.5019C38.5682 13.3853 38.5568 13.2926 38.548 13.2257C38.5457 13.2081 38.5435 13.1923 38.5416 13.1783C38.5398 13.1657 38.5383 13.1546 38.5369 13.1449L38.5332 13.1195L38.5318 13.1105L38.531 13.1055C38.531 13.1055 38.5308 13.1041 36.8344 13.3884L38.5308 13.1041L38.2532 11.3158C42.99 14.8841 46.0707 20.6799 46.0707 27.2231C46.0707 30.7997 45.1502 34.1531 43.5419 37.0413ZM36.8344 13.3884C36.3708 11.6694 36.3698 11.6697 36.3698 11.6697L36.3687 11.67L36.3664 11.6707L36.3609 11.6723L36.3467 11.6766L36.3059 11.6891C36.2731 11.6994 36.2294 11.7134 36.1751 11.7316C36.0665 11.768 35.9156 11.821 35.7254 11.8936C35.345 12.0388 34.8077 12.2626 34.1381 12.5886C32.7987 13.2409 30.9316 14.3019 28.7353 15.9612C24.6974 19.0119 23.0622 23.7485 22.4023 27.5026C21.9608 26.76 21.4839 26.0584 20.9769 25.4189C18.524 22.3247 15.3446 20.7249 12.852 19.8967C11.7164 19.5194 10.7019 19.2949 9.92734 19.1617C12.8888 12.3372 19.4946 7.58673 27.1684 7.58673C31.2265 7.58673 34.9858 8.91516 38.0655 11.1763L36.3708 11.6694L36.8344 13.3884ZM8.79367 22.597C8.44883 24.0805 8.26612 25.6296 8.26612 27.2231C8.26612 36.2114 14.0794 43.7892 22.0132 46.1203V35.8888C21.4251 33.0689 20.0428 29.8567 18.324 27.6885C16.4308 25.3004 13.9181 23.9994 11.805 23.2973C10.756 22.9487 9.83088 22.7566 9.17402 22.6522C9.03412 22.63 8.90686 22.6118 8.79367 22.597ZM27.576 30.2636L25.4355 31.1827C25.4854 30.3022 25.5855 29.2865 25.772 28.2082C26.3557 24.8334 27.7329 21.1331 30.7567 18.8486C32.5671 17.4808 34.1075 16.5765 35.2383 16C35.228 16.4383 35.2019 16.9254 35.1513 17.4504C34.9289 19.7608 34.2404 22.7419 32.4052 25.5513C31.1808 27.4259 29.9225 28.6246 28.998 29.3438C28.535 29.7039 28.1548 29.9446 27.9035 30.0895C27.7779 30.1619 27.6847 30.2103 27.6298 30.2376C27.6023 30.2513 27.5845 30.2597 27.5769 30.2632L27.576 30.2636ZM27.1684 46.8595C32.7318 46.8595 37.7337 44.3627 41.1927 40.3889C40.7402 40.329 40.2371 40.2538 39.7025 40.1599C37.6818 39.8048 35.0134 39.1501 32.9651 37.9161C31.7075 37.1584 30.221 35.9639 29.0999 35.0121C28.5276 34.5263 28.0287 34.0848 27.6726 33.7646C27.4944 33.6043 27.3513 33.4739 27.2522 33.383C27.2026 33.3375 27.1639 33.3018 27.1373 33.2771L27.1064 33.2485L27.0956 33.2384L27.0948 33.2377L27.0944 33.2373L25.4123 31.6684C25.401 31.9594 25.3951 32.232 25.3929 32.4829C25.3882 33.0302 25.4016 33.4696 25.4156 33.7669C25.4227 33.9154 25.4299 34.028 25.435 34.1005L25.4389 34.1522L25.4409 34.1785L25.4421 34.1928L25.4422 34.1938L25.4423 34.1946L25.4424 34.1953L25.45 34.278V46.7794C26.016 46.8324 26.5892 46.8595 27.1684 46.8595Z" fill="white"/>
</svg>
