<svg width="22" height="22" viewBox="0 0 22 22" fill="none" xmlns="http://www.w3.org/2000/svg">
<path fill-rule="evenodd" clip-rule="evenodd" d="M13.3762 20.5901C13.3762 20.8077 13.6037 21.1015 13.8103 21.0334C18.0347 19.6403 21.0892 15.6043 21.0892 10.8425C21.0892 4.92718 16.3754 0.131836 10.5607 0.131836C4.74599 0.131836 0.0322266 4.92718 0.0322266 10.8425C0.0322266 15.6852 3.19142 19.7773 7.52756 21.1021C7.74566 21.1687 7.98955 20.832 7.98955 20.6039V19.914C7.98955 19.2812 7.40365 18.8061 6.77095 18.7934C6.28818 18.7836 5.76645 18.7006 5.41865 18.4397C5.09004 18.1932 4.96441 17.9997 4.73977 17.6536C4.72189 17.626 4.70339 17.5975 4.6841 17.5679C4.55782 17.3742 4.4814 17.174 4.40693 16.9788C4.299 16.696 4.19516 16.4238 3.94956 16.1979C3.90938 16.161 3.86827 16.1257 3.82638 16.0919C3.30694 15.6723 3.46443 14.9245 4.07198 15.2016C4.51738 15.4047 4.95646 16.0526 5.03793 16.1771C5.04707 16.1911 5.05625 16.2049 5.06582 16.2185C5.08934 16.2521 5.11247 16.2853 5.13531 16.3181C5.5408 16.9002 5.85359 17.3493 6.64289 17.4434C7.13864 17.5025 7.46084 17.4685 7.86713 17.1943C8.06721 17.0592 8.18612 16.8333 8.25659 16.6035C8.39219 16.1613 8.03595 15.7639 7.58954 15.6427C7.28681 15.5605 6.94088 15.4531 6.64289 15.3261C5.88422 15.0028 5.44623 14.7313 4.92895 14.0807C4.4507 13.4792 4.15851 12.3336 4.08843 12.0357C4.07702 11.9872 4.07045 11.9385 4.06739 11.8888L3.94956 9.97077C3.99908 9.28621 4.16338 8.68463 4.52048 8.17511C4.78409 7.79898 4.90085 7.31611 4.76962 6.87594C4.72957 6.74159 4.69741 6.60539 4.6841 6.48356C4.64609 6.13552 4.73918 5.6966 4.84114 5.34621C4.95043 4.97061 5.30277 4.72785 5.69301 4.75489C5.93046 4.77135 6.19178 4.80336 6.39804 4.8645C6.79668 4.98267 7.2569 5.28891 7.57958 5.53095C7.84324 5.72872 8.18005 5.8127 8.50271 5.74545C9.04633 5.63216 9.91376 5.47754 10.5605 5.48722C11.234 5.49729 12.1281 5.69247 12.6974 5.83548C13.0435 5.92242 13.4121 5.83225 13.6924 5.61133C13.9843 5.38118 14.3765 5.1082 14.7229 4.98904C15.0065 4.8915 15.3781 4.8562 15.7028 4.84702C16.1398 4.83467 16.5048 5.15509 16.552 5.58969C16.5839 5.88413 16.6 6.21696 16.5592 6.48356C16.5395 6.61289 16.5014 6.75904 16.4569 6.90206C16.3249 7.32696 16.4414 7.78979 16.7233 8.13407C17.1263 8.62637 17.3104 9.16128 17.4162 9.97077C17.5554 11.0358 17.5068 11.6919 17.1714 12.7107C16.741 14.0177 16.0428 14.7485 14.7229 15.2016L13.8251 15.487C13.2913 15.6567 13.0974 16.2828 13.2538 16.8207C13.3812 17.2588 13.3773 17.9727 13.3763 18.0577L13.3762 18.0746V20.5901Z" fill="#B10622"/>
</svg>
