<svg width="31" height="32" viewBox="0 0 31 32" fill="none" xmlns="http://www.w3.org/2000/svg">
<circle cx="15.5001" cy="15.495" r="2.59282" fill="#1E90FF" stroke="#1E90FF" stroke-width="0.0933448"/>
<path d="M30.2532 15.6074C30.2532 16.1981 29.9587 16.8353 29.2674 17.4926C28.5743 18.1516 27.5317 18.7794 26.1815 19.3224C23.4852 20.4068 19.7091 21.0943 15.5 21.0943C11.2909 21.0943 7.51475 20.4068 4.81848 19.3224C3.46833 18.7794 2.42566 18.1516 1.73264 17.4926C1.04135 16.8353 0.746758 16.1981 0.746758 15.6074C0.746758 15.0166 1.04135 14.3794 1.73264 13.7221C2.42566 13.0631 3.46833 12.4353 4.81848 11.8923C7.51475 10.8079 11.2909 10.1204 15.5 10.1204C19.7091 10.1204 23.4852 10.8079 26.1815 11.8923C27.5317 12.4353 28.5743 13.0631 29.2674 13.7221C29.9587 14.3794 30.2532 15.0166 30.2532 15.6074Z" stroke="#1E90FF" stroke-width="1.49352"/>
<path d="M22.8766 28.384C22.3651 28.6794 21.6659 28.7429 20.751 28.4729C19.8338 28.2022 18.7688 27.6131 17.6234 26.7153C15.3362 24.9225 12.8527 21.996 10.7482 18.3508C8.64364 14.7056 7.35097 11.0916 6.94192 8.21441C6.7371 6.77366 6.75949 5.55675 6.98365 4.6271C7.20725 3.69977 7.61181 3.12603 8.1234 2.83067C8.63498 2.5353 9.33414 2.47181 10.249 2.74183C11.1662 3.01253 12.2313 3.60159 13.3766 4.49935C15.6638 6.29221 18.1473 9.21869 20.2518 12.8639C22.3564 16.5091 23.6491 20.1231 24.0581 23.0003C24.2629 24.441 24.2406 25.6579 24.0164 26.5876C23.7928 27.5149 23.3882 28.0887 22.8766 28.384Z" stroke="#1E90FF" stroke-width="1.49352"/>
<path d="M8.12352 28.384C7.61193 28.0887 7.20737 27.5149 6.98377 26.5876C6.75961 25.658 6.73722 24.4411 6.94204 23.0003C7.35109 20.1231 8.64376 16.5091 10.7483 12.8639C12.8529 9.2187 15.3363 6.29221 17.6236 4.49936C18.7689 3.6016 19.8339 3.01254 20.7511 2.74184C21.666 2.47182 22.3652 2.53531 22.8768 2.83067C23.3883 3.12604 23.7929 3.69978 24.0165 4.6271C24.2407 5.55676 24.2631 6.77366 24.0582 8.21442C23.6492 11.0916 22.3565 14.7056 20.252 18.3508C18.1474 21.996 15.6639 24.9225 13.3767 26.7154C12.2314 27.6131 11.1663 28.2022 10.2491 28.4729C9.33426 28.7429 8.6351 28.6794 8.12352 28.384Z" stroke="#1E90FF" stroke-width="1.49352"/>
</svg>
