<svg width="32" height="31" viewBox="0 0 32 31" fill="none" xmlns="http://www.w3.org/2000/svg">
<rect x="16" y="0.5" width="21.5668" height="21.5668" transform="rotate(45 16 0.5)" fill="#FF7F00"/>
<path fill-rule="evenodd" clip-rule="evenodd" d="M20.2869 15.2611C19.975 16.0266 20.1297 16.9377 20.7509 17.559C21.578 18.3861 22.9191 18.3861 23.7462 17.559C24.5734 16.7318 24.5734 15.3907 23.7462 14.5636C23.1135 13.9309 22.1801 13.7822 21.406 14.1174L18.3215 11.0329C18.6568 10.2588 18.508 9.32541 17.8753 8.6927C17.2426 8.05999 16.3092 7.91126 15.5351 8.24652L11.8776 4.58901L10.7462 5.72038L14.416 9.39016C14.1041 10.1557 14.2587 11.0668 14.88 11.688C15.0976 11.9057 15.3508 12.0661 15.6209 12.1692L15.6131 20.1692C14.833 20.4816 14.2821 21.2445 14.2821 22.1362C14.2821 23.3059 15.2303 24.2542 16.4001 24.2542C17.5698 24.2542 18.5181 23.3059 18.5181 22.1362C18.5181 21.2544 17.9793 20.4986 17.2131 20.1798L17.2209 12.195L20.2869 15.2611Z" fill="black"/>
</svg>
