<svg width="32" height="32" viewBox="0 0 32 32" fill="none" xmlns="http://www.w3.org/2000/svg">
<rect y="-1" width="33" height="33" fill="#FF7F00"/>
<path d="M13.9999 14.1428H16.7856V25.7143C15.607 28.5 13.186 28.8632 11.107 28.2857C9.17845 27.75 7.99988 25.7143 7.99988 25.7143L10.2499 24.4285C10.2499 24.4285 10.8927 25.6071 12.2856 25.6071C13.6784 25.6071 13.9999 24.4285 13.9999 24.4285V14.1428Z" fill="black"/>
<path d="M27.3927 16.2857L25.4642 17.5714C25.4642 17.5714 24.2856 16.5 23.4284 16.5C22.5713 16.5 22.0113 16.9563 22.0356 18C22.0697 19.4657 25.0082 20.1827 25.9999 20.6785C25.9999 20.6785 28.2639 21.8776 28.1427 24.9643C28.0216 28.0509 25.0356 28.4143 23.7499 28.5C22.4642 28.5857 21.5592 28.3118 20.4284 27.6428C19.4324 27.0535 18.4999 25.7143 18.4999 25.7143L20.7499 24.1071C20.7499 24.1071 21.8854 25.9463 23.107 26.0357C24.0838 26.1071 25.2284 25.9285 25.357 24.9643C25.6142 23.0357 23.527 22.623 22.6784 22.1785C20.5593 21.0181 18.3927 19.7143 19.5713 16.2857C20.0133 15 21.284 14.181 22.7856 14.0357C26.107 13.7143 27.3927 16.2857 27.3927 16.2857Z" fill="black"/>
</svg>
