<svg width="20" height="30" viewBox="0 0 20 30" fill="none" xmlns="http://www.w3.org/2000/svg">
<circle cx="15" cy="15" r="5" fill="#FF7F00"/>
<path d="M20 5C20 7.76142 17.7614 10 15 10C12.2386 10 10 7.76142 10 5C10 2.23858 12.2386 0 15 0C17.7614 0 20 2.23858 20 5Z" fill="#1E90FF"/>
<path d="M10 5C10 7.76142 7.76142 10 5 10C2.23858 10 0 7.76142 0 5C0 2.23858 2.23858 0 5 0C7.76142 0 10 2.23858 10 5Z" fill="#1E90FF"/>
<path d="M15 10C12.2386 10 10 7.76142 10 5C10 2.23858 12.2386 0 15 0H5C7.76142 0 10 2.23858 10 5C10 7.76142 7.76142 10 5 10H15Z" fill="#1E90FF"/>
<path d="M10 15C10 17.7614 7.76142 20 5 20C2.23858 20 0 17.7614 0 15C0 12.2386 2.23858 10 5 10C7.76142 10 10 12.2386 10 15Z" fill="#FF7F00"/>
<path d="M5 10.0098H10V20H5V10.0098Z" fill="#FF7F00"/>
<path fill-rule="evenodd" clip-rule="evenodd" d="M5 30C7.76142 30 10 27.7614 10 25C10 24.9548 9.9994 24.9098 9.99821 24.8649H9.99999V20H5.13512V20.0018C5.09023 20.0006 5.04518 20 5 20C2.23858 20 0 22.2386 0 25C0 27.7614 2.23858 30 5 30Z" fill="#1E90FF"/>
<circle cx="15" cy="5" r="5" fill="white"/>
</svg>
