<svg width="26" height="31" viewBox="0 0 26 31" fill="none" xmlns="http://www.w3.org/2000/svg">
<path d="M3.01429 19.8588L2.1997 19.6959C2.1997 19.6959 0.747097 22.2005 0.407602 23.7281C0.00982249 25.518 0.733443 27.964 0.733443 27.964C0.733443 27.964 1.83855 29.91 3.50304 30.4892C6.99536 31.7044 13.2374 27.6381 13.2374 27.6381C13.2374 27.6381 15.8573 26.437 17.6769 26.0904C18.7435 25.8872 20.4465 25.7238 20.4465 25.7238C20.4465 25.7238 23.5012 25.3573 24.6823 23.0357C25.6703 21.0939 24.6823 19.2479 24.6823 19.2479C24.6823 19.2479 22.965 20.2133 20.9759 19.4515C19.2653 18.7964 18.8987 16.7227 18.8987 16.7227H16.7401C16.7401 16.7227 16.1477 18.9149 14.8258 19.4515C14.0005 19.7866 12.5857 19.8588 12.5857 19.8588C12.5857 19.8588 11.1256 21.9324 9.77536 23.0357C8.34084 24.2079 5.62097 25.3573 5.62097 25.3573C5.62097 25.3573 3.8973 24.1602 3.25866 23.0357C2.53493 21.7614 3.01429 19.8588 3.01429 19.8588Z" fill="#FF7F00"/>
<circle cx="3.46225" cy="14.1524" r="2.15866" fill="#FF7F00"/>
<circle cx="13.1558" cy="14.1524" r="2.15866" fill="#FF7F00"/>
<circle cx="22.5236" cy="14.1524" r="2.15866" fill="#FF7F00"/>
<path d="M10.1826 0.0193481H25.3339L21.5461 10.8941L17.7175 3.64426L13.9704 10.8941L10.1826 0.0193481Z" fill="#FF7F00"/>
</svg>
