<svg width="22" height="21" viewBox="0 0 22 21" fill="none" xmlns="http://www.w3.org/2000/svg">
<path fill-rule="evenodd" clip-rule="evenodd" d="M13.3443 20.4583C13.3443 20.6758 13.5717 20.9696 13.7783 20.9015C18.0026 19.5083 21.0569 15.4724 21.0569 10.7107C21.0569 4.79535 16.3432 0 10.5285 0C4.71376 0 0 4.79535 0 10.7107C0 15.5535 3.1593 19.6456 7.49556 20.9703C7.71367 21.037 7.95759 20.7001 7.95759 20.4721V19.7822C7.95759 19.1494 7.37169 18.6743 6.73899 18.6615C6.25622 18.6518 5.73449 18.5688 5.38669 18.3079C5.05808 18.0614 4.93245 17.8678 4.70781 17.5217C4.68993 17.4942 4.67142 17.4657 4.65214 17.4361C4.52586 17.2424 4.44944 17.0421 4.37497 16.847C4.26704 16.5641 4.1632 16.292 3.9176 16.0661C3.87741 16.0291 3.83631 15.9939 3.79441 15.96C3.27498 15.5404 3.43247 14.7927 4.04002 15.0697C4.48542 15.2729 4.9245 15.9207 5.00597 16.0453C5.0151 16.0592 5.02429 16.073 5.03386 16.0867C5.05738 16.1203 5.08051 16.1535 5.10335 16.1863C5.50884 16.7684 5.82163 17.2174 6.61093 17.3115C7.10668 17.3707 7.42887 17.3366 7.83517 17.0624C8.03525 16.9274 8.15416 16.7015 8.22462 16.4717C8.36023 16.0294 8.00398 15.6321 7.55757 15.5109C7.25485 15.4287 6.90891 15.3213 6.61093 15.1943C5.85225 14.871 5.41427 14.5995 4.89699 13.9489C4.41874 13.3473 4.12655 12.2018 4.05647 11.9039C4.04506 11.8554 4.03849 11.8067 4.03543 11.7569L3.9176 9.83893C3.96712 9.15437 4.13142 8.55279 4.48852 8.04328C4.75213 7.66714 4.86888 7.18427 4.73766 6.7441C4.6976 6.60976 4.66545 6.47355 4.65214 6.35173C4.61413 6.00368 4.70722 5.56476 4.80917 5.21437C4.91846 4.83877 5.27081 4.59601 5.66105 4.62306C5.8985 4.63952 6.15982 4.67152 6.36608 4.73267C6.76472 4.85084 7.22493 5.15707 7.54761 5.39911C7.81127 5.59689 8.14809 5.68086 8.47075 5.61362C9.01437 5.50032 9.8818 5.34571 10.5285 5.35538C11.2021 5.36546 12.0962 5.56063 12.6654 5.70364C13.0115 5.79059 13.3801 5.70041 13.6604 5.47949C13.9524 5.24935 14.3445 4.97636 14.6909 4.85721C14.9745 4.75966 15.3461 4.72436 15.6708 4.71518C16.1078 4.70283 16.4729 5.02325 16.52 5.45785C16.552 5.75229 16.568 6.08512 16.5273 6.35173C16.5075 6.48106 16.4694 6.6272 16.4249 6.77022C16.2929 7.19512 16.4094 7.65795 16.6913 8.00224C17.0943 8.49453 17.2785 9.02944 17.3843 9.83893C17.5234 10.904 17.4749 11.5601 17.1394 12.5789C16.7091 13.8859 16.0109 14.6166 14.6909 15.0697L13.7932 15.3552C13.2593 15.5249 13.0654 16.151 13.2218 16.6888C13.3492 17.1269 13.3453 17.8408 13.3444 17.9259L13.3443 17.9427V20.4583Z" fill="#FF7F00"/>
</svg>
