<svg width="23" height="23" viewBox="0 0 23 23" fill="none" xmlns="http://www.w3.org/2000/svg">
<path fill-rule="evenodd" clip-rule="evenodd" d="M15.9211 0.131836H6.14334C2.76827 0.131836 0.0322266 2.86788 0.0322266 6.24295V16.0207C0.0322266 19.3958 2.76827 22.1318 6.14334 22.1318H15.9211C19.2962 22.1318 22.0322 19.3958 22.0322 16.0207V6.24295C22.0322 2.86788 19.2962 0.131836 15.9211 0.131836ZM19.8933 16.0207C19.8866 18.2117 18.1121 19.9862 15.9211 19.9929H6.14334C3.95232 19.9862 2.17783 18.2117 2.17112 16.0207V6.24295C2.17783 4.05193 3.95232 2.27743 6.14334 2.27072H15.9211C18.1121 2.27743 19.8866 4.05193 19.8933 6.24295V16.0207ZM16.8378 6.5485C17.5128 6.5485 18.06 6.00129 18.06 5.32628C18.06 4.65127 17.5128 4.10406 16.8378 4.10406C16.1627 4.10406 15.6156 4.65127 15.6156 5.32628C15.6156 6.00129 16.1627 6.5485 16.8378 6.5485ZM11.0322 5.63184C7.99466 5.63184 5.53223 8.09427 5.53223 11.1318C5.53223 14.1694 7.99466 16.6318 11.0322 16.6318C14.0698 16.6318 16.5322 14.1694 16.5322 11.1318C16.5355 9.67214 15.957 8.27131 14.9249 7.23916C13.8927 6.207 12.4919 5.62858 11.0322 5.63184ZM7.67112 11.1318C7.67112 12.9881 9.17592 14.4929 11.0322 14.4929C12.8885 14.4929 14.3933 12.9881 14.3933 11.1318C14.3933 9.27552 12.8885 7.77072 11.0322 7.77072C9.17592 7.77072 7.67112 9.27552 7.67112 11.1318Z" fill="#B10622"/>
</svg>
