<svg width="40" height="54" viewBox="0 0 40 54" fill="none" xmlns="http://www.w3.org/2000/svg">
<path fill-rule="evenodd" clip-rule="evenodd" d="M19.9847 53.5C19.9847 53.5 39.3297 30.7251 39.3297 19.7935C39.3297 8.86183 30.6686 0 19.9847 0C9.30071 0 0.639648 8.86183 0.639648 19.7935C0.639648 30.7251 19.9847 53.5 19.9847 53.5ZM24.7759 30.7882C24.9732 31.0392 25.2084 31.1647 25.4815 31.1647C25.7394 31.1647 25.9594 31.0706 26.1415 30.8824C26.3235 30.6941 26.498 30.3804 26.6649 29.9412C26.9229 29.2196 27.2263 28.3569 27.5753 27.3529C27.9394 26.3333 28.2884 25.2039 28.6222 23.9647C28.9712 22.7255 29.2594 21.4078 29.487 20.0118C29.7146 18.6157 29.8284 17.1804 29.8284 15.7059C29.8284 14.1529 29.6236 13.0157 29.2139 12.2941C28.8043 11.5569 28.2732 11.1882 27.6208 11.1882C27.0442 11.1882 26.4298 11.4627 25.7773 12.0118C25.1249 12.5608 24.4725 13.3059 23.8201 14.2471C23.1677 15.1882 22.5456 16.2549 21.9538 17.4471C21.3773 18.6235 20.869 19.8392 20.429 21.0941V20.3882C20.429 19.2588 20.3835 18.3569 20.2924 17.6824C20.2166 16.9922 20.0952 16.4824 19.9283 16.1529C19.7614 15.8078 19.5642 15.5804 19.3366 15.4706C19.109 15.3608 18.8511 15.3059 18.5628 15.3059C18.1228 15.3059 17.6297 15.5725 17.0835 16.1059C16.5372 16.6392 15.9759 17.3451 15.3993 18.2235C14.8379 19.0863 14.2917 20.0431 13.7607 21.0941C13.2448 22.1294 12.7744 23.1725 12.3496 24.2235C11.9399 25.2745 11.6137 26.2392 11.371 27.1176C11.1282 27.9961 11.0068 28.6941 11.0068 29.2118C11.0068 29.7451 11.0827 30.1451 11.2344 30.4118C11.4013 30.6784 11.6062 30.8118 11.8489 30.8118C12.4558 30.8118 12.8958 30.302 13.1689 29.2824C13.5179 27.8706 13.9503 26.4275 14.4662 24.9529C14.982 23.4627 15.5738 22.0745 16.2414 20.7882C16.9241 19.4863 17.66 18.4039 18.449 17.5412C18.5248 17.8392 18.5779 18.1922 18.6083 18.6C18.6538 18.9922 18.6766 19.4157 18.6766 19.8706C18.6766 20.8588 18.6159 21.9333 18.4945 23.0941C18.3883 24.2549 18.2517 25.3529 18.0848 26.3882C17.7814 26.7804 17.569 27.2118 17.4476 27.6824C17.3262 28.1373 17.2655 28.4902 17.2655 28.7412C17.2655 29.1176 17.3641 29.4 17.5614 29.5882C17.7586 29.7608 17.9635 29.8471 18.1759 29.8471C18.4186 29.8471 18.6766 29.7451 18.9497 29.5412C19.2228 29.3373 19.4504 28.9765 19.6324 28.4588C20.6945 25.0392 21.8704 22.0431 23.1601 19.4706C24.4649 16.8824 25.8835 14.8353 27.416 13.3294C27.4767 13.5961 27.5146 13.8784 27.5298 14.1765C27.5601 14.4745 27.5753 14.7804 27.5753 15.0941C27.5753 16.0196 27.4843 17.0392 27.3022 18.1529C27.1201 19.251 26.8773 20.3882 26.5739 21.5647C26.2856 22.7412 25.9746 23.8941 25.6408 25.0235C25.3222 26.1529 25.0111 27.2118 24.7077 28.2C24.5711 28.6863 24.5028 29.1098 24.5028 29.4706C24.5028 30.098 24.5939 30.5373 24.7759 30.7882Z" fill="#D9D9D9"/>
</svg>
