<svg width="32" height="31" viewBox="0 0 32 31" fill="none" xmlns="http://www.w3.org/2000/svg">
<path d="M16.0407 0L29.4195 7.75V23.25L16.0407 31L2.66187 23.25V7.75L16.0407 0Z" fill="#0B0D05"/>
<path fill-rule="evenodd" clip-rule="evenodd" d="M5.22503 7.91223L15.0049 2.26579V7.26261L9.5524 10.4106L5.22503 7.91223ZM8.54168 12.3158L4.09387 9.74783V21.1861L8.54168 18.6181V12.3158ZM9.85194 20.3503L5.19032 23.0417L15.0049 28.7082V23.3254L9.85194 20.3503ZM17.1602 23.2176V28.7082L27.0472 23L22.2922 20.2546L17.1602 23.2176ZM23.4367 18.4268L28.0713 21.1025V9.83137L23.4367 12.5071V18.4268ZM22.5917 10.5063L27.0125 7.954L17.1602 2.26578V7.37042L22.5917 10.5063Z" fill="white"/>
<path fill-rule="evenodd" clip-rule="evenodd" d="M20.6554 11.6244L16.0407 8.96012L11.5404 11.5584L16.155 14.2227L20.6554 11.6244ZM10.4216 13.4012V18.6927L15.011 21.3424V16.0508L10.4216 13.4012ZM17.1738 21.2827L21.6598 18.6927V13.5331L17.1738 16.1231V21.2827Z" fill="#1E90FF"/>
</svg>
