<svg width="22" height="22" viewBox="0 0 22 22" fill="none" xmlns="http://www.w3.org/2000/svg">
<path fill-rule="evenodd" clip-rule="evenodd" d="M15.8889 0H6.11111C2.73604 0 0 2.73604 0 6.11111V15.8889C0 19.2639 2.73604 22 6.11111 22H15.8889C19.2639 22 22 19.2639 22 15.8889V6.11111C22 2.73604 19.2639 0 15.8889 0ZM19.8611 15.8889C19.8544 18.0798 18.0798 19.8544 15.8889 19.8611H6.11111C3.92009 19.8544 2.1456 18.0798 2.13889 15.8889V6.11111C2.1456 3.92009 3.92009 2.1456 6.11111 2.13889H15.8889C18.0798 2.1456 19.8544 3.92009 19.8611 6.11111V15.8889ZM16.8056 6.41667C17.4806 6.41667 18.0278 5.86945 18.0278 5.19444C18.0278 4.51944 17.4806 3.97222 16.8056 3.97222C16.1305 3.97222 15.5833 4.51944 15.5833 5.19444C15.5833 5.86945 16.1305 6.41667 16.8056 6.41667ZM11 5.5C7.96244 5.5 5.5 7.96244 5.5 11C5.5 14.0376 7.96244 16.5 11 16.5C14.0376 16.5 16.5 14.0376 16.5 11C16.5033 9.5403 15.9248 8.13947 14.8927 7.10732C13.8605 6.07517 12.4597 5.49675 11 5.5ZM7.63889 11C7.63889 12.8563 9.14369 14.3611 11 14.3611C12.8563 14.3611 14.3611 12.8563 14.3611 11C14.3611 9.14369 12.8563 7.63889 11 7.63889C9.14369 7.63889 7.63889 9.14369 7.63889 11Z" fill="#FF7F00"/>
</svg>
