<svg width="29" height="23" viewBox="0 0 29 23" fill="none" xmlns="http://www.w3.org/2000/svg">
<rect x="0.5" y="0.5" width="28" height="21.7857" stroke="#1E90FF"/>
<rect width="29" height="6.90476" fill="#1E90FF"/>
<ellipse cx="21.7499" cy="3.17614" rx="1.03571" ry="1.10476" fill="#D9D9D9"/>
<ellipse cx="25.6166" cy="3.17614" rx="1.03571" ry="1.10476" fill="#D9D9D9"/>
<path d="M10.4953 17.3165L7.60853 12.3165H13.382L10.4953 17.3165ZM17.1812 10.0285H12.7326V9.02853H17.1812V10.0285ZM10.9953 11.7659V12.8165H9.99528V11.7659H10.9953ZM12.7326 10.0285C11.7731 10.0285 10.9953 10.8064 10.9953 11.7659H9.99528C9.99528 10.2541 11.2208 9.02853 12.7326 9.02853V10.0285Z" fill="white"/>
<path d="M18.4505 10.7979L21.3373 15.7979L15.5638 15.7979L18.4505 10.7979ZM11.7646 18.0859L16.2132 18.0859L16.2132 19.0859L11.7646 19.0859L11.7646 18.0859ZM17.9505 16.3486L17.9505 15.2979L18.9505 15.2979L18.9505 16.3486L17.9505 16.3486ZM16.2132 18.0859C17.1727 18.0859 17.9505 17.3081 17.9505 16.3486L18.9505 16.3486C18.9505 17.8603 17.725 19.0859 16.2132 19.0859L16.2132 18.0859Z" fill="white"/>
</svg>
