<svg width="32" height="31" viewBox="0 0 32 31" fill="none" xmlns="http://www.w3.org/2000/svg">
<circle cx="15.5" cy="3.5942" r="2.7942" fill="#FF7F00" stroke="black" stroke-width="1.6"/>
<path d="M0 19.5435L2.92029 16.3986H27.8551L31 19.5435M1.7971 30.1015L4.94203 27.4058V20.2174H25.8333V27.4058L28.529 30.1015" stroke="black" stroke-width="1.6"/>
<path d="M22.787 15.7246C22.787 18.8912 22.2866 21.6413 21.1313 23.574C20.0123 25.4461 18.2514 26.6058 15.5 26.6058C12.7487 26.6058 10.9878 25.4461 9.86878 23.574C8.71348 21.6413 8.21309 18.8912 8.21309 15.7246C8.21309 12.5323 8.60818 9.7876 9.70829 7.86161C10.2494 6.91427 10.9573 6.17174 11.8768 5.66071C12.7992 5.14806 13.9794 4.84349 15.5 4.84349C17.0207 4.84349 18.2009 5.14806 19.1233 5.66071C20.0428 6.17174 20.7507 6.91427 21.2918 7.86161C22.3919 9.7876 22.787 12.5323 22.787 15.7246Z" fill="#FF7F00" stroke="black" stroke-width="1.6"/>
<path d="M15.3877 13.029H5.16669V7.63767L2.69568 5.3913M15.3877 13.029H25.6087V7.63767L28.3044 5.3913M15.3877 13.029V27.4058" stroke="black" stroke-width="1.6"/>
</svg>
